{"glyphs":{"0":{"ha":921,"x_min":0,"x_max":0,"o":"m 461 972 b 601 481 575 972 601 863 b 461 6 601 100 578 6 b 319 481 343 6 319 100 b 461 972 319 863 342 972 z m 461 -12 b 876 481 767 -12 876 206 b 461 990 876 757 767 990 b 44 481 154 990 44 757 b 461 -12 44 206 154 -12 z "},"1":{"ha":582,"x_min":0,"x_max":0,"o":"m 493 17 b 411 125 444 17 411 38 l 411 990 l 324 990 l 57 775 l 68 758 b 200 728 68 758 200 856 l 200 125 b 103 17 200 42 160 17 l 103 0 l 493 0 l 493 17 z "},"2":{"ha":690,"x_min":0,"x_max":0,"o":"m 632 276 b 500 197 601 221 547 197 l 206 197 b 319 351 206 197 285 307 b 585 750 411 468 585 597 b 333 990 585 876 472 990 b 61 668 213 990 32 882 l 83 671 b 338 415 113 913 601 832 l 39 0 l 574 0 l 650 276 z "},"3":{"ha":744,"x_min":0,"x_max":0,"o":"m 318 -12 b 686 310 479 -12 693 49 b 463 543 683 407 599 510 b 338 990 711 719 571 990 b 88 749 236 990 86 917 l 104 747 b 332 807 136 843 269 854 b 219 503 415 743 428 554 l 219 485 b 460 260 413 471 450 328 b 317 6 479 125 440 6 b 200 49 206 6 186 46 b 261 103 228 56 247 75 b 206 251 288 160 263 225 b 58 197 151 278 85 254 b 71 81 40 158 47 108 b 318 -12 126 17 203 -12 z "},"4":{"ha":764,"x_min":0,"x_max":0,"o":"m 363 369 l 172 369 b 167 444 144 369 114 371 l 363 726 z m 719 272 l 719 369 l 589 369 l 589 978 l 524 990 l 40 296 l 40 272 l 363 272 l 363 189 b 272 18 363 24 331 18 l 272 0 l 679 0 l 679 18 b 589 196 621 18 589 21 l 589 272 z "},"5":{"ha":760,"x_min":0,"x_max":0,"o":"m 701 296 b 132 613 707 481 550 679 l 164 771 l 618 771 l 682 978 l 183 978 l 78 422 b 522 247 414 467 503 313 b 338 6 554 133 493 6 b 249 49 239 6 232 40 b 297 118 272 63 289 86 b 211 258 311 182 272 244 b 69 172 149 272 83 235 b 107 56 60 129 76 81 b 338 -12 139 29 201 -12 b 701 296 528 -12 694 82 z "},"6":{"ha":829,"x_min":0,"x_max":0,"o":"m 546 275 b 426 6 546 60 531 6 b 310 449 322 6 310 149 b 435 550 310 526 392 550 b 546 275 508 550 546 464 z m 778 303 b 510 608 778 456 724 608 b 310 493 431 608 335 572 b 488 972 311 861 388 972 b 569 943 563 972 579 944 b 500 893 540 938 517 919 b 535 733 465 840 481 767 b 694 771 590 700 660 717 b 699 890 718 808 718 858 b 488 990 685 913 622 990 b 58 442 240 990 58 783 b 426 -12 58 165 182 -12 b 778 303 629 -12 778 88 z "},"7":{"ha":782,"x_min":0,"x_max":0,"o":"m 110 978 l 64 690 l 82 690 b 222 771 111 746 175 771 l 597 771 b 240 0 311 436 254 226 l 472 0 b 617 771 472 139 471 496 l 736 978 z "},"8":{"ha":792,"x_min":0,"x_max":0,"o":"m 392 972 b 500 931 429 972 469 961 b 551 776 531 900 551 851 b 493 608 551 693 536 633 b 378 665 472 617 392 657 b 308 718 349 681 325 699 b 264 839 274 756 261 797 b 392 972 268 921 321 972 z m 50 224 b 403 -12 50 57 178 -12 b 747 283 624 -12 747 86 b 514 597 747 404 663 528 b 682 786 589 614 682 683 b 392 990 682 911 579 990 b 76 726 201 990 76 886 b 246 458 76 619 135 532 b 50 224 169 436 50 353 z m 283 436 b 397 375 294 431 385 381 b 557 154 485 325 563 247 b 403 6 551 61 490 6 b 217 233 281 6 217 88 b 283 436 217 349 249 411 z "},"9":{"ha":814,"x_min":0,"x_max":0,"o":"m 283 704 b 406 972 283 919 310 972 b 521 535 504 972 521 840 b 389 429 521 458 446 429 b 283 704 319 429 283 522 z m 51 676 b 329 371 51 524 104 371 b 521 489 400 371 492 408 b 342 6 518 122 515 6 b 254 36 267 6 243 35 b 325 85 283 40 307 58 b 289 244 358 139 343 211 b 129 208 233 279 164 264 b 126 88 106 171 106 121 b 342 -12 139 67 194 -12 b 771 538 665 -12 771 196 b 403 990 771 814 657 990 b 51 676 201 990 51 892 z "}," ":{"ha":378,"x_min":0,"x_max":0,"o":""},"!":{"ha":494,"x_min":0,"x_max":0,"o":"m 314 336 l 367 1035 l 142 1035 l 189 336 z m 371 107 b 251 -12 371 40 317 -12 b 132 107 186 -12 132 40 b 251 226 132 174 186 226 b 371 107 317 226 371 174 z "},"\"":{"ha":775,"x_min":0,"x_max":0,"o":"m 490 522 l 610 522 l 653 978 l 446 978 z m 186 522 l 304 522 l 347 978 l 140 978 z "},"#":{"ha":1014,"x_min":0,"x_max":0,"o":"m 633 639 l 586 439 l 399 439 l 444 639 z m 961 639 l 961 783 l 810 783 l 869 1036 l 725 1036 l 665 783 l 478 783 l 536 1036 l 393 1036 l 333 783 l 149 783 l 149 639 l 300 639 l 254 439 l 61 439 l 61 294 l 221 294 l 153 0 l 296 0 l 364 294 l 553 294 l 485 0 l 629 0 l 697 294 l 874 294 l 874 439 l 729 439 l 776 639 z "},"$":{"ha":835,"x_min":0,"x_max":0,"o":"m 418 6 l 418 347 l 460 322 b 418 6 614 208 603 6 z m 400 665 l 382 679 b 400 972 201 797 250 972 z m 596 538 l 418 654 l 418 972 b 731 692 628 963 704 776 l 743 692 l 743 925 b 418 990 743 925 643 988 l 418 1160 l 400 1160 l 400 990 b 104 885 176 990 104 885 b 246 457 -12 735 49 581 l 400 358 l 400 6 b 69 332 193 29 94 246 l 58 332 l 58 65 b 400 -12 58 65 156 -6 l 400 -182 l 418 -182 l 418 -12 b 738 101 636 -12 708 67 b 596 538 842 253 779 417 z "},"%":{"ha":1467,"x_min":0,"x_max":0,"o":"m 340 686 b 411 922 340 876 347 922 b 481 686 472 922 481 876 b 411 460 481 497 475 460 b 340 686 349 460 340 497 z m 624 686 b 411 940 624 824 567 940 b 196 686 254 940 196 824 b 411 442 196 550 254 442 b 624 686 567 442 624 550 z m 1078 50 b 1007 276 1015 50 1007 86 b 1078 511 1007 465 1014 511 b 1147 276 1139 511 1147 465 b 1078 50 1147 86 1142 50 z m 1078 529 b 863 276 921 529 863 414 b 1078 32 863 139 921 32 b 1292 276 1233 32 1292 139 b 1078 529 1292 414 1233 529 z m 1053 978 l 336 0 l 450 0 l 1167 978 z "},"&":{"ha":1144,"x_min":0,"x_max":0,"o":"m 628 893 b 532 626 650 846 678 725 l 440 764 b 497 981 365 874 432 971 b 628 893 553 989 601 949 z m 1049 179 b 951 110 1042 126 1000 110 b 831 183 931 110 878 115 b 726 336 817 200 747 303 b 826 399 757 403 825 432 b 861 331 826 371 840 347 b 1006 342 904 293 969 299 b 994 486 1043 386 1038 451 b 885 504 964 511 918 514 b 715 351 833 490 769 457 l 543 610 b 654 901 703 725 672 847 b 443 1029 624 990 543 1036 b 292 615 240 1014 153 806 l 353 524 l 313 499 b 139 93 206 435 7 290 b 613 153 265 -96 560 -7 b 696 46 631 128 682 58 b 882 -12 753 -11 849 -14 b 1068 179 994 -11 1069 63 z m 600 169 b 336 182 540 51 400 100 b 325 481 236 310 263 432 l 365 507 z "},"'":{"ha":408,"x_min":0,"x_max":0,"o":"m 149 522 l 268 522 l 311 978 l 104 978 z "},"(":{"ha":489,"x_min":0,"x_max":0,"o":"m 469 1035 b 110 353 97 775 110 454 b 467 -286 110 256 99 -78 l 486 -268 b 315 349 308 -107 315 274 b 489 1017 315 422 308 804 z "},")":{"ha":485,"x_min":0,"x_max":0,"o":"m -3 1017 b 171 349 178 804 171 422 b 0 -268 171 274 178 -107 l 19 -286 b 376 353 388 -78 376 256 b 17 1035 376 454 389 775 z "},"*":{"ha":782,"x_min":0,"x_max":0,"o":"m 683 701 l 632 860 l 415 733 l 468 978 l 301 978 l 354 733 l 140 860 l 88 701 l 336 676 l 150 510 l 285 413 l 385 642 l 486 413 l 621 510 l 435 676 z "},"+":{"ha":993,"x_min":0,"x_max":0,"o":"m 913 508 l 574 508 l 574 860 l 417 860 l 417 508 l 78 508 l 78 351 l 417 351 l 417 0 l 574 0 l 574 351 l 913 351 z "},",":{"ha":399,"x_min":0,"x_max":0,"o":"m 144 -183 b 268 -74 210 -147 249 -103 b 301 211 314 -4 379 132 b 118 211 251 261 168 261 b 119 26 68 160 68 76 b 207 -10 144 3 176 -6 b 132 -167 231 -12 210 -107 l 144 -183 z "},"-":{"ha":617,"x_min":0,"x_max":0,"o":"m 526 272 l 526 433 l 89 433 l 89 272 z "},".":{"ha":415,"x_min":0,"x_max":0,"o":"m 213 -7 b 342 122 283 -7 342 50 b 213 254 342 194 283 254 b 82 122 140 254 82 194 b 213 -7 82 50 140 -7 z "},"/":{"ha":621,"x_min":0,"x_max":0,"o":"m 597 1007 l 447 1007 l 19 -29 l 169 -29 z "},":":{"ha":406,"x_min":0,"x_max":0,"o":"m 207 399 b 338 529 278 399 338 457 b 207 661 338 601 278 661 b 75 529 133 661 75 601 b 207 399 75 457 133 399 z m 207 -15 b 338 117 278 -15 338 43 b 207 249 338 189 278 249 b 75 117 133 249 75 189 b 207 -15 75 43 133 -15 z "},";":{"ha":403,"x_min":0,"x_max":0,"o":"m 207 400 b 338 532 279 400 338 458 b 207 664 338 604 279 664 b 75 532 133 664 75 604 b 207 400 75 458 133 400 z m 297 210 b 115 210 247 260 165 261 b 117 26 64 158 65 76 b 204 -11 142 1 172 -7 b 128 -165 228 -12 208 -110 l 140 -182 b 268 -74 204 -146 247 -104 b 297 210 313 -6 376 132 z "},"<":{"ha":833,"x_min":0,"x_max":0,"o":"m 310 369 l 768 601 l 768 760 l 64 399 l 64 339 l 768 -22 l 768 135 z "},"=":{"ha":851,"x_min":0,"x_max":0,"o":"m 788 457 l 788 596 l 78 596 l 78 457 z m 788 144 l 788 283 l 78 283 l 78 144 z "},">":{"ha":833,"x_min":0,"x_max":0,"o":"m 524 368 l 65 136 l 65 -22 l 769 339 l 769 399 l 65 760 l 65 603 z "},"?":{"ha":833,"x_min":0,"x_max":0,"o":"m 511 113 b 390 232 511 179 457 232 b 271 113 325 232 271 179 b 390 -7 271 46 325 -7 b 511 113 457 -7 511 46 z m 515 478 b 725 788 596 499 735 585 b 233 976 717 986 454 1075 b 110 829 157 942 115 874 b 135 726 106 794 108 756 b 282 717 175 685 242 678 b 286 864 322 756 326 822 b 218 896 267 885 244 896 b 246 961 197 896 200 943 b 485 785 358 1007 472 926 b 415 529 496 664 479 589 b 364 321 332 450 357 367 l 389 324 b 515 478 382 407 440 458 z "},"@":{"ha":1303,"x_min":0,"x_max":0,"o":"m 803 358 b 756 124 786 265 763 158 b 669 65 756 124 729 60 b 589 285 613 69 554 126 b 757 518 615 400 675 519 b 803 358 825 517 810 400 z m 1233 329 b 768 860 1267 688 1021 846 b 53 244 397 878 69 639 b 560 -283 35 -171 358 -282 b 924 -175 822 -286 924 -175 l 914 -160 b 604 -229 914 -160 783 -249 b 232 288 147 -181 232 288 b 785 757 264 522 446 786 b 1133 344 1100 729 1138 526 b 935 50 1128 133 994 50 b 907 111 893 50 901 82 b 989 522 918 160 989 522 l 835 525 b 828 489 835 525 832 511 b 713 551 828 492 794 551 b 404 231 489 551 418 329 b 553 -28 389 133 425 -28 b 746 75 668 -28 733 57 b 864 -28 739 26 775 -26 b 1233 329 974 -31 1204 22 z "},"A":{"ha":1017,"x_min":0,"x_max":0,"o":"m 540 289 l 250 289 l 388 649 z m 1000 17 b 879 125 968 19 928 14 b 515 978 879 125 861 167 l 500 978 l 239 307 b 24 17 118 19 63 19 l 24 0 l 394 0 l 394 17 b 246 271 201 11 232 239 l 547 271 l 590 172 b 558 17 590 172 668 17 l 558 0 l 1000 0 z "},"B":{"ha":957,"x_min":0,"x_max":0,"o":"m 413 960 b 593 742 478 960 593 951 b 424 504 593 532 499 504 l 376 504 l 376 960 z m 897 249 b 556 501 897 486 646 501 b 832 736 583 501 832 529 b 431 978 832 981 624 978 l 51 978 l 51 967 b 132 786 113 967 132 872 l 132 190 b 51 13 132 96 111 13 l 51 0 l 431 0 b 897 249 671 0 897 6 z m 644 254 b 414 18 644 14 535 18 l 376 18 l 376 486 l 418 486 b 644 254 511 486 644 481 z "},"C":{"ha":972,"x_min":0,"x_max":0,"o":"m 886 313 b 578 6 844 99 708 6 b 351 489 428 6 351 107 b 578 972 351 869 424 972 b 886 667 707 972 826 904 l 903 667 l 919 915 b 578 990 860 964 739 990 b 56 489 281 990 56 783 b 578 -12 56 193 281 -12 b 919 63 725 -12 850 17 l 903 313 z "},"D":{"ha":1089,"x_min":0,"x_max":0,"o":"m 743 485 b 446 18 743 42 596 18 l 385 18 l 385 960 l 446 960 b 743 485 600 960 743 924 z m 1039 485 b 446 978 1039 892 722 978 l 57 978 l 57 960 b 150 786 118 960 150 872 l 150 190 b 57 18 150 96 117 18 l 57 0 l 446 0 b 1039 485 722 0 1039 79 z "},"E":{"ha":915,"x_min":0,"x_max":0,"o":"m 817 288 b 404 18 788 10 404 18 l 354 18 l 354 485 l 436 485 b 631 331 436 485 615 486 l 649 331 l 649 657 l 631 657 b 436 503 615 500 436 503 l 354 503 l 354 960 l 404 960 b 799 703 404 960 782 958 l 817 703 l 817 978 l 38 978 l 38 960 b 118 786 99 960 118 872 l 118 190 b 38 18 118 96 96 18 l 38 0 l 835 0 l 835 288 z "},"F":{"ha":847,"x_min":0,"x_max":0,"o":"m 35 978 l 35 960 b 115 786 96 960 115 872 l 115 190 b 35 18 115 96 94 18 l 35 0 l 479 0 l 479 18 b 353 181 450 18 353 17 l 353 483 l 439 483 b 640 331 439 483 619 488 l 658 331 l 658 657 l 640 657 b 439 503 619 499 439 503 l 353 503 l 353 960 l 401 960 b 810 703 401 960 786 965 l 828 703 l 828 978 z "},"G":{"ha":1050,"x_min":0,"x_max":0,"o":"m 625 376 l 625 358 b 732 178 703 358 732 349 b 565 6 732 43 700 6 b 353 489 410 6 353 107 b 565 972 353 871 407 972 b 871 658 693 972 850 928 l 900 658 l 918 914 b 565 990 832 971 732 990 b 54 489 265 990 54 775 b 565 -12 54 203 265 -12 b 924 56 714 -12 846 15 b 1017 358 924 342 929 358 l 1017 376 z "},"H":{"ha":985,"x_min":0,"x_max":0,"o":"m 893 813 b 954 960 893 874 890 954 l 954 978 l 631 978 l 631 960 b 664 813 669 954 664 874 l 664 478 l 328 478 l 328 813 b 361 960 328 874 321 954 l 361 978 l 36 978 l 36 960 b 99 813 103 954 99 874 l 99 161 b 36 18 99 93 107 28 l 36 0 l 361 0 l 361 18 b 328 161 324 25 328 93 l 328 457 l 664 457 l 664 161 b 631 18 664 93 668 25 l 631 0 l 954 0 l 954 18 b 893 161 886 28 893 93 l 893 813 z "},"I":{"ha":553,"x_min":0,"x_max":0,"o":"m 54 978 l 54 960 b 158 836 115 960 158 940 l 158 163 b 54 18 158 49 114 18 l 54 0 l 503 0 l 503 18 b 399 163 444 18 399 49 l 399 836 b 503 960 399 940 443 960 l 503 978 z "},"J":{"ha":625,"x_min":0,"x_max":0,"o":"m 144 978 l 144 961 b 231 683 231 961 231 943 l 231 253 b 0 -215 231 -49 119 -172 l 6 -232 b 474 253 232 -199 474 -82 l 474 854 b 567 961 474 943 504 961 l 567 978 z "},"K":{"ha":1153,"x_min":0,"x_max":0,"o":"m 1124 18 b 956 114 1088 19 1026 21 b 603 585 956 114 928 150 b 1093 960 865 899 1004 960 l 1093 978 l 635 978 l 635 960 b 646 672 803 957 696 726 l 432 432 b 572 238 432 432 493 351 b 890 0 719 28 743 0 l 1124 0 z m 58 978 l 58 960 b 136 850 118 960 136 936 l 136 136 b 58 18 136 42 117 18 l 58 0 l 457 0 l 457 18 b 372 136 397 18 372 42 l 372 850 b 467 960 372 951 406 960 l 467 978 z "},"L":{"ha":915,"x_min":0,"x_max":0,"o":"m 808 301 b 406 18 785 33 465 18 l 381 18 l 381 849 b 481 960 381 949 421 960 l 481 978 l 53 978 l 53 960 b 142 858 113 960 142 943 l 142 154 b 64 18 142 60 124 18 l 64 0 l 826 0 l 826 301 z "},"M":{"ha":1399,"x_min":0,"x_max":0,"o":"m 1378 18 b 1278 149 1314 18 1278 54 l 1278 847 b 1364 960 1278 932 1300 960 l 1364 978 l 1042 978 l 782 306 l 447 978 l 74 978 l 74 960 b 221 851 111 957 168 946 l 221 360 b 13 18 221 268 192 18 l 13 0 l 440 0 l 440 18 b 239 360 264 18 239 269 l 239 822 l 658 -12 l 676 -12 l 1042 926 l 1042 149 b 956 18 1042 54 1018 18 l 956 0 l 1378 0 l 1378 18 z "},"N":{"ha":1167,"x_min":0,"x_max":0,"o":"m 933 0 l 933 646 b 1142 960 933 710 950 961 l 1142 978 l 721 978 l 721 960 b 915 646 893 961 915 710 l 915 292 l 399 978 l 7 978 l 7 960 b 176 856 43 957 90 965 l 236 775 l 236 333 b 22 18 236 278 224 18 l 22 0 l 454 0 l 454 18 b 254 333 257 18 254 278 l 254 754 l 819 0 z "},"O":{"ha":1096,"x_min":0,"x_max":0,"o":"m 754 482 b 550 6 754 100 714 6 b 343 482 385 6 343 100 b 550 972 343 863 385 972 b 754 482 714 972 754 863 z m 1043 482 b 550 990 1043 757 856 990 b 57 482 244 990 57 757 b 550 -12 57 206 244 -12 b 1043 482 856 -12 1043 206 z "},"P":{"ha":938,"x_min":0,"x_max":0,"o":"m 364 436 l 364 960 l 389 960 b 625 697 551 960 625 961 b 389 436 625 440 560 436 z m 364 418 l 389 418 b 900 697 665 418 900 451 b 389 978 900 944 665 978 l 38 978 l 38 960 b 124 821 99 960 124 907 l 124 161 b 46 18 124 67 104 18 l 46 0 l 503 0 l 503 18 b 364 190 433 18 364 22 z "},"Q":{"ha":1086,"x_min":0,"x_max":0,"o":"m 754 482 b 550 6 754 100 714 6 b 343 482 385 6 343 100 b 550 972 343 863 385 972 b 754 482 714 972 754 863 z m 1043 482 b 550 990 1043 757 856 990 b 57 482 244 990 57 757 b 550 -12 57 206 244 -12 b 1043 482 856 -12 1043 206 z m 643 -78 b 149 -192 643 -78 399 19 l 161 -206 b 335 -189 192 -186 235 -149 l 454 -239 b 926 -281 682 -335 814 -372 l 1088 -142 l 1076 -128 b 881 -158 1047 -147 990 -196 z "},"R":{"ha":1050,"x_min":0,"x_max":0,"o":"m 624 713 b 401 467 624 465 560 467 l 358 467 l 358 960 l 401 960 b 624 713 550 960 624 965 z m 1040 18 b 890 168 1004 21 918 63 b 601 461 824 418 726 465 b 900 713 751 471 900 524 b 401 978 900 944 678 978 l 32 978 l 32 960 b 118 836 93 960 118 922 l 118 163 b 32 18 118 44 92 18 l 32 0 l 442 0 l 442 18 b 358 163 383 18 358 47 l 358 449 l 424 449 b 603 311 424 449 571 453 b 839 0 667 32 665 0 l 1040 0 z "},"S":{"ha":861,"x_min":0,"x_max":0,"o":"m 739 101 b 597 538 843 253 781 417 l 383 679 b 401 972 203 797 251 972 b 726 692 624 972 699 778 l 744 692 l 744 925 b 401 990 744 925 639 990 b 106 885 178 990 106 885 b 247 457 -11 735 50 581 l 461 322 b 436 6 629 199 585 6 b 78 332 204 6 104 243 l 60 332 l 60 65 b 436 -12 60 65 167 -12 b 739 101 668 -12 739 101 z "},"T":{"ha":1010,"x_min":0,"x_max":0,"o":"m 26 978 l 26 682 l 44 682 b 361 960 53 886 303 960 l 382 960 l 382 163 b 292 18 382 68 349 18 l 292 0 l 715 0 l 715 18 b 625 163 658 18 625 68 l 625 960 l 646 960 b 963 682 703 960 954 886 l 981 682 l 981 978 z "},"U":{"ha":1056,"x_min":0,"x_max":0,"o":"m 479 -12 b 835 318 663 -12 835 79 l 835 706 b 1031 960 835 763 847 960 l 1029 978 l 638 978 l 638 960 b 817 706 800 960 817 763 l 817 318 b 590 71 817 167 717 71 b 364 318 458 71 364 154 l 364 838 b 457 960 364 938 397 960 l 457 978 l 38 978 l 38 960 b 121 838 99 960 121 922 l 121 328 b 479 -12 121 101 290 -12 z "},"V":{"ha":1099,"x_min":0,"x_max":0,"o":"m 663 978 l 663 960 b 789 654 860 960 810 706 l 644 294 l 431 799 b 471 960 431 799 365 960 l 471 978 l 18 978 l 18 960 b 139 847 56 958 92 958 b 513 0 139 847 157 818 l 544 0 l 807 650 b 1069 960 931 939 1007 960 l 1069 978 z "},"W":{"ha":1581,"x_min":0,"x_max":0,"o":"m 1160 978 l 1160 960 b 1281 654 1349 960 1297 703 l 1151 304 l 949 799 b 989 960 949 799 882 960 l 989 978 l 551 978 l 551 960 b 667 847 588 958 621 960 b 753 636 667 847 710 735 l 632 307 l 428 799 b 468 960 428 799 363 960 l 468 978 l 29 978 l 29 960 b 144 847 65 958 99 960 b 503 0 144 847 328 408 l 540 0 l 763 611 b 1021 0 790 547 956 150 l 1057 0 l 1299 650 b 1561 960 1414 922 1501 960 l 1561 978 z "},"X":{"ha":1158,"x_min":0,"x_max":0,"o":"m 1139 17 b 976 140 1103 18 1053 40 b 667 582 976 140 801 390 l 743 685 b 1097 960 947 960 1063 958 l 1097 978 l 678 978 l 678 960 b 731 700 881 960 753 731 b 656 599 708 669 656 599 l 496 821 b 517 960 429 914 464 960 l 517 978 l 26 978 l 26 960 b 194 835 63 958 111 943 b 506 396 194 835 401 549 l 429 292 b 76 17 210 6 110 18 l 76 0 l 499 0 l 499 17 b 443 276 313 17 414 235 l 518 379 l 671 161 b 674 17 671 161 760 29 l 674 0 l 1139 0 l 1139 17 z "},"Y":{"ha":1094,"x_min":0,"x_max":0,"o":"m 663 978 l 663 960 b 753 679 847 960 769 713 b 653 471 733 636 653 471 l 453 803 b 457 961 358 963 415 961 l 457 978 l 26 978 l 26 961 b 154 851 63 960 93 957 b 425 383 154 851 221 744 l 425 163 b 340 18 425 68 399 18 l 340 0 l 746 0 l 746 18 b 663 163 688 18 663 68 l 663 454 l 765 664 b 1072 960 892 915 1011 960 l 1072 978 z "},"Z":{"ha":882,"x_min":0,"x_max":0,"o":"m 851 978 l 92 978 l 69 697 l 89 697 b 507 960 124 850 294 960 l 572 960 l 31 0 l 807 0 l 835 324 l 817 324 b 388 18 788 158 628 18 l 347 18 z "},"[":{"ha":496,"x_min":0,"x_max":0,"o":"m 158 1021 l 158 -203 l 471 -203 l 471 -185 b 324 -79 399 -185 324 -181 l 324 883 b 471 1003 324 1001 396 1003 l 471 1021 z "},"\\":{"ha":638,"x_min":0,"x_max":0,"o":"m 451 -28 l 610 -28 l 176 1021 l 19 1021 z "},"]":{"ha":486,"x_min":0,"x_max":0,"o":"m 15 1021 l 15 1003 b 163 883 90 1003 163 1001 l 163 -79 b 15 -185 163 -181 88 -185 l 15 -203 l 328 -203 l 328 1021 z "},"^":{"ha":814,"x_min":0,"x_max":0,"o":"m 435 978 l 382 978 l 124 522 l 193 522 l 407 729 l 625 522 l 692 522 z "},"_":{"ha":778,"x_min":0,"x_max":0,"o":"m 0 -82 l 0 -194 l 778 -194 l 778 -82 z "},"`":{"ha":549,"x_min":0,"x_max":0,"o":"m 196 1000 l 6 940 l 386 774 l 468 774 z "},"a":{"ha":757,"x_min":0,"x_max":0,"o":"m 417 335 b 417 133 417 335 417 135 b 342 72 403 100 378 72 b 269 164 269 72 269 164 b 417 335 269 232 292 307 z m 726 96 b 686 72 718 72 686 72 b 619 169 619 71 619 169 l 619 376 b 363 654 619 540 544 654 b 229 625 363 654 292 658 b 129 539 165 592 144 560 b 122 446 110 515 107 478 b 242 408 144 403 199 386 b 279 528 285 432 301 485 b 228 569 267 550 250 564 b 240 611 199 578 218 600 b 417 442 336 660 417 586 l 417 354 b 57 129 172 294 57 274 b 224 -12 57 -1 197 -12 b 418 106 322 -12 399 39 b 571 -12 432 -12 571 -12 b 742 88 658 -12 726 35 z "},"b":{"ha":867,"x_min":0,"x_max":0,"o":"m 574 307 b 433 6 574 89 522 6 b 293 243 351 6 293 76 l 293 406 b 422 604 293 508 328 604 b 574 307 529 604 574 499 z m 813 322 b 519 654 813 518 693 654 b 293 542 421 654 335 618 l 293 1036 l 18 981 l 18 964 b 89 875 75 943 89 922 l 89 7 b 254 53 89 -15 207 17 b 461 -12 296 13 365 -12 b 813 322 647 -12 813 72 z "},"c":{"ha":710,"x_min":0,"x_max":0,"o":"m 629 581 b 432 654 600 610 536 654 b 63 324 182 654 63 499 b 382 -12 63 144 200 -12 b 656 174 556 -12 646 94 l 640 182 b 465 111 615 135 535 104 b 286 344 358 122 286 194 b 436 636 286 557 371 636 b 515 594 506 636 529 601 b 468 539 493 585 476 567 b 531 418 451 489 479 435 b 654 482 582 401 638 431 b 629 581 664 517 653 558 z "},"d":{"ha":872,"x_min":0,"x_max":0,"o":"m 579 183 b 444 56 572 114 518 56 b 297 346 338 56 297 146 b 431 636 297 569 346 636 b 579 421 506 636 579 572 z m 853 39 b 782 129 796 46 782 61 l 782 1036 l 508 981 l 508 964 b 579 878 565 943 579 926 l 579 603 b 403 654 544 633 489 654 b 57 324 206 654 57 550 b 357 -12 57 104 182 -12 b 579 118 439 -12 546 28 l 579 14 b 618 -11 579 14 579 -18 l 853 21 z "},"e":{"ha":736,"x_min":0,"x_max":0,"o":"m 269 351 b 388 636 269 485 314 636 b 494 351 457 636 494 526 z m 679 333 b 388 654 679 572 563 654 b 50 318 207 654 50 535 b 368 -12 50 143 186 -12 b 660 179 549 -12 640 92 l 642 186 b 436 76 611 94 508 60 b 269 333 343 97 275 160 z "},"f":{"ha":503,"x_min":0,"x_max":0,"o":"m 369 17 b 313 157 319 31 313 81 l 313 624 l 458 624 l 461 642 l 313 642 b 413 1015 313 907 328 1015 b 451 982 463 1015 475 988 b 399 944 429 978 410 965 b 431 824 375 901 389 849 b 551 856 472 800 528 815 b 550 957 568 886 567 929 b 400 1033 529 994 471 1033 b 107 642 226 1033 107 964 l 17 642 l 18 624 l 107 624 l 107 157 b 53 17 107 86 106 32 l 53 0 l 369 0 l 369 17 z "},"g":{"ha":807,"x_min":0,"x_max":0,"o":"m 440 446 b 360 254 440 290 413 254 b 281 446 308 254 281 290 b 360 636 281 601 300 636 b 440 446 415 636 440 601 z m 776 532 b 783 649 811 563 814 615 b 699 674 761 671 726 679 b 576 592 667 667 618 647 b 360 654 532 629 463 654 b 83 446 163 654 83 558 b 208 264 83 382 117 300 b 79 90 76 210 79 90 b 154 -28 79 28 114 -8 b 33 -276 79 -61 -22 -157 b 538 -293 86 -390 364 -400 b 688 -94 679 -206 688 -94 b 457 150 717 143 549 150 l 263 150 b 229 257 121 150 192 238 b 360 238 264 243 304 238 b 638 446 568 238 638 353 b 589 581 638 496 622 546 b 640 597 613 604 643 610 b 660 539 638 578 644 556 b 776 532 689 506 743 501 z m 172 -39 b 300 -60 226 -61 285 -60 l 489 -60 b 607 -132 590 -60 607 -132 b 563 -247 607 -132 624 -206 b 233 -236 486 -301 350 -294 b 172 -39 233 -236 36 -153 z "},"h":{"ha":786,"x_min":0,"x_max":0,"o":"m 764 17 b 707 164 715 29 707 88 l 707 440 b 506 654 707 607 617 654 b 296 508 422 654 326 583 l 296 1036 l 19 978 l 19 960 b 92 874 76 939 92 922 l 92 164 b 36 18 92 93 89 33 l 36 0 l 353 0 l 353 18 b 296 164 303 31 296 88 l 296 479 b 397 551 319 524 361 551 b 503 435 471 551 503 514 l 503 164 b 447 17 503 93 500 32 l 447 0 l 764 0 l 764 17 z "},"i":{"ha":421,"x_min":0,"x_max":0,"o":"m 82 840 b 196 728 82 778 132 728 b 310 840 258 728 310 778 b 196 954 310 904 258 954 b 82 840 132 954 82 904 z m 369 17 b 313 163 319 31 313 86 l 313 654 l 36 597 l 36 579 b 108 486 93 554 108 535 l 108 163 b 53 17 108 92 106 33 l 53 0 l 369 0 z "},"j":{"ha":414,"x_min":0,"x_max":0,"o":"m 85 843 b 199 729 85 779 136 729 b 313 843 261 729 313 779 b 199 956 313 906 261 956 b 85 843 136 956 85 906 z m 40 579 b 110 476 97 549 110 524 l 110 38 b 25 -300 110 38 110 -279 l 25 -317 b 314 69 163 -282 314 -193 l 314 654 l 40 597 z "},"k":{"ha":838,"x_min":0,"x_max":0,"o":"m 822 18 b 676 106 779 18 722 42 b 456 399 676 106 558 254 b 824 624 610 578 772 622 l 824 642 l 467 642 l 467 624 b 463 436 600 626 493 468 l 315 282 b 394 164 315 282 353 225 b 596 0 489 25 500 0 l 822 0 z m 346 17 b 289 163 296 31 289 86 l 289 1036 l 13 981 l 13 964 b 85 874 69 943 85 922 l 85 163 b 29 17 85 90 82 32 l 29 0 l 346 0 z "},"l":{"ha":400,"x_min":0,"x_max":0,"o":"m 363 17 b 306 163 313 31 306 86 l 306 1036 l 29 981 l 29 964 b 101 874 86 943 101 922 l 101 163 b 46 17 101 90 99 32 l 46 0 l 363 0 l 363 17 z "},"m":{"ha":1125,"x_min":0,"x_max":0,"o":"m 1104 17 b 1047 164 1056 29 1047 88 l 1047 443 b 858 654 1047 610 968 654 b 664 508 774 654 694 592 b 478 654 647 614 575 654 b 289 517 396 654 324 593 l 289 654 l 13 597 l 13 579 b 83 483 69 554 83 532 l 83 161 b 29 17 83 90 82 32 l 29 0 l 346 0 l 346 17 b 289 161 296 31 289 85 l 289 471 b 382 554 297 510 340 554 b 463 438 438 554 463 517 l 463 164 b 407 17 463 93 460 32 l 407 0 l 724 0 l 724 17 b 667 164 675 29 667 88 l 667 439 b 667 464 667 447 667 451 b 761 554 668 510 718 554 b 843 438 817 554 843 517 l 843 164 b 788 17 843 93 840 32 l 788 0 l 1104 0 l 1104 17 z "},"n":{"ha":785,"x_min":0,"x_max":0,"o":"m 754 17 b 697 164 704 29 697 88 l 697 443 b 496 654 697 610 606 654 b 289 513 414 654 322 592 l 289 654 l 13 597 l 13 579 b 83 488 69 554 83 536 l 83 161 b 29 17 83 90 82 32 l 29 0 l 346 0 l 346 17 b 289 161 296 31 289 85 l 289 469 b 389 554 299 513 346 554 b 493 438 457 554 493 511 l 493 164 b 438 17 493 93 490 32 l 438 0 l 754 0 l 754 17 z "},"o":{"ha":790,"x_min":0,"x_max":0,"o":"m 503 321 b 401 6 503 69 489 6 b 300 321 314 6 300 69 b 401 636 300 572 314 636 b 503 321 489 636 503 572 z m 746 321 b 401 654 746 504 632 654 b 57 321 172 654 57 504 b 401 -12 57 139 172 -12 b 746 321 632 -12 746 139 z "},"p":{"ha":878,"x_min":0,"x_max":0,"o":"m 578 307 b 436 6 578 90 525 6 b 297 196 364 6 307 63 l 297 443 b 426 604 306 531 343 604 b 578 307 532 604 578 500 z m 817 324 b 522 654 817 518 696 654 b 297 543 425 654 339 618 l 297 654 l 22 597 l 22 579 b 93 496 79 558 93 544 l 93 -211 b 39 -350 93 -282 92 -335 l 39 -368 l 354 -368 l 354 -350 b 297 -211 306 -337 297 -287 l 297 25 b 465 -12 339 1 396 -12 b 817 324 651 -12 817 74 z "},"q":{"ha":874,"x_min":0,"x_max":0,"o":"m 574 161 b 447 28 574 85 521 28 b 300 346 340 28 300 147 b 435 636 300 569 350 636 b 574 439 507 636 569 579 z m 836 -350 b 779 -211 786 -337 779 -287 l 779 638 b 621 604 779 664 697 658 b 414 654 572 636 503 654 b 68 324 217 654 68 551 b 368 -12 68 106 193 -12 b 574 67 449 -12 535 19 l 574 -211 b 519 -350 574 -282 572 -335 l 519 -368 l 836 -368 z "},"r":{"ha":643,"x_min":0,"x_max":0,"o":"m 601 461 b 590 625 643 508 639 583 b 467 646 557 654 504 663 b 294 478 429 629 381 610 l 294 654 l 17 597 l 17 579 b 89 486 74 554 89 535 l 89 163 b 33 17 89 92 88 33 l 33 0 l 351 0 l 351 17 b 294 163 301 31 294 86 l 294 446 b 399 525 349 531 399 542 b 438 449 399 497 413 469 b 601 461 486 406 558 413 z "},"s":{"ha":622,"x_min":0,"x_max":0,"o":"m 519 63 b 431 374 592 158 556 297 l 290 461 b 300 636 169 538 210 636 b 510 465 413 636 489 551 l 528 465 l 528 614 b 300 654 528 614 460 654 b 100 586 151 654 100 586 b 188 279 19 489 54 364 l 328 194 b 315 6 433 125 414 6 b 83 221 188 6 108 129 l 65 221 l 65 43 b 315 -12 65 43 147 -12 b 519 63 467 -12 519 63 z "},"t":{"ha":521,"x_min":0,"x_max":0,"o":"m 490 132 b 407 88 476 113 447 88 b 301 204 332 88 301 126 l 301 624 l 471 624 l 474 642 l 301 642 l 301 857 l 97 828 l 97 642 l 17 642 l 19 624 l 97 624 l 97 200 b 303 -12 97 32 193 -12 b 506 124 400 -12 483 54 l 490 132 z "},"u":{"ha":815,"x_min":0,"x_max":0,"o":"m 792 42 b 721 125 733 49 721 58 l 721 654 l 451 626 l 451 610 b 517 499 522 601 517 583 l 517 172 b 411 89 494 115 450 89 b 307 204 335 89 307 126 l 307 654 l 24 626 l 24 610 b 101 503 104 599 101 586 l 101 200 b 301 -12 101 33 192 -12 b 517 133 403 -12 494 57 l 517 15 b 556 -11 517 15 518 -17 l 792 25 l 792 42 z "},"v":{"ha":764,"x_min":0,"x_max":0,"o":"m 468 642 l 468 624 b 556 407 615 624 568 440 b 486 228 544 374 486 228 l 347 514 b 376 624 347 514 290 624 l 376 642 l -6 642 l -6 624 b 99 544 21 622 63 617 b 364 -12 99 544 242 254 l 414 -12 l 575 403 b 765 624 656 597 704 624 l 765 642 z "},"w":{"ha":1156,"x_min":0,"x_max":0,"o":"m 856 642 l 856 624 b 943 406 994 624 954 439 b 878 231 932 372 878 231 l 742 521 b 764 624 742 521 686 624 l 764 642 l 425 642 l 425 624 b 504 551 450 622 471 617 b 561 429 504 551 540 475 l 489 231 l 351 521 b 369 624 351 521 299 624 l 369 642 l 18 642 l 18 624 b 114 551 42 622 81 617 b 374 -12 114 551 251 254 l 422 -12 l 571 408 l 764 -12 l 810 -12 l 963 403 b 1140 624 1035 596 1086 624 l 1140 642 z "},"x":{"ha":831,"x_min":0,"x_max":0,"o":"m 819 17 b 703 82 797 18 747 21 l 482 403 l 531 474 b 789 624 628 603 725 622 l 789 642 l 458 642 l 458 624 b 517 482 611 624 517 482 l 471 419 l 394 526 b 411 624 346 592 375 624 l 411 642 l 7 642 l 7 624 b 115 569 29 621 64 628 l 329 263 l 272 186 b 26 17 172 50 83 17 l 26 0 l 371 0 l 371 17 b 288 172 182 17 288 172 l 340 246 l 426 121 b 438 17 428 119 504 17 l 438 0 l 819 0 l 819 17 z "},"y":{"ha":792,"x_min":0,"x_max":0,"o":"m 471 642 l 471 625 b 558 407 639 625 558 407 l 493 229 l 349 524 b 383 625 349 524 300 625 l 383 642 l 1 642 l 1 625 b 101 554 26 624 71 618 b 392 -49 101 554 349 50 l 365 -121 b 294 -192 335 -219 300 -211 b 240 -131 286 -165 268 -143 b 99 -185 186 -107 122 -131 b 153 -328 74 -239 99 -303 b 272 -314 189 -344 244 -336 b 382 -126 301 -289 343 -243 l 575 403 b 769 625 657 597 704 625 l 769 642 z "},"z":{"ha":683,"x_min":0,"x_max":0,"o":"m 642 642 l 89 642 l 82 458 l 100 458 b 400 624 132 550 214 624 l 40 0 l 600 0 l 613 211 l 594 211 b 304 18 575 156 513 18 z "},"{":{"ha":490,"x_min":0,"x_max":0,"o":"m 421 -214 b 338 4 361 -204 338 -140 l 338 204 b 119 389 338 356 258 389 b 338 589 258 389 338 436 l 338 789 b 421 1007 338 933 357 996 l 419 1021 b 178 789 269 1014 178 949 l 178 626 b 68 396 178 407 122 413 l 68 381 b 178 167 122 365 178 372 l 178 4 b 419 -228 178 -156 274 -221 l 421 -214 z "},"|":{"ha":335,"x_min":0,"x_max":0,"o":"m 101 -228 l 232 -228 l 232 1021 l 101 1021 z "},"}":{"ha":494,"x_min":0,"x_max":0,"o":"m 74 -228 b 315 4 219 -221 315 -156 l 315 167 b 425 381 315 372 371 365 l 425 396 b 315 626 371 413 315 407 l 315 789 b 74 1021 315 949 224 1014 l 72 1007 b 156 789 136 996 156 933 l 156 589 b 374 389 156 436 235 389 b 156 204 235 389 156 356 l 156 4 b 72 -214 156 -140 132 -204 z "},"~":{"ha":864,"x_min":0,"x_max":0,"o":"m 499 256 b 782 444 499 256 674 196 l 769 450 b 539 411 732 374 586 392 l 372 474 b 86 286 372 474 194 542 l 100 281 b 332 318 138 357 286 336 z "},"":{"ha":0,"x_min":0,"x_max":0,"o":""}," ":{"ha":378,"x_min":0,"x_max":0,"o":""},"¡":{"ha":469,"x_min":0,"x_max":0,"o":"m 181 451 l 129 -243 l 353 -243 l 304 451 z m 243 560 b 361 678 308 560 361 613 b 243 797 361 744 308 797 b 124 678 178 797 124 744 b 243 560 124 613 178 560 z "},"¢":{"ha":757,"x_min":0,"x_max":0,"o":"m 326 346 b 454 635 326 533 392 619 l 454 122 b 326 346 379 151 326 219 z m 508 540 b 571 418 490 489 519 433 b 694 482 622 401 678 431 b 669 582 704 518 693 558 b 472 654 642 611 576 654 l 472 824 l 454 824 l 454 654 b 103 324 217 646 103 494 b 454 -12 103 132 235 -12 l 454 -164 l 472 -164 l 472 -12 b 696 174 613 4 686 103 l 681 182 b 472 118 653 125 543 96 l 472 636 b 556 596 549 636 569 601 b 508 540 533 585 517 567 z "},"£":{"ha":947,"x_min":0,"x_max":0,"o":"m 210 6 b 82 93 192 6 97 7 b 251 174 72 151 136 224 b 382 100 292 157 332 132 b 210 6 353 50 293 6 z m 50 89 b 211 -12 85 -7 197 -12 b 453 58 314 -12 393 8 b 754 -4 544 7 671 -29 b 883 204 754 -4 900 33 l 864 207 b 636 153 857 129 740 119 l 567 175 b 551 454 604 246 613 349 b 519 503 549 461 525 496 l 725 503 l 725 521 l 508 521 b 614 994 286 910 403 1050 b 647 960 640 989 675 960 b 569 929 619 960 592 951 b 572 771 526 885 526 814 b 731 772 617 728 688 728 b 758 888 761 804 772 851 b 621 1011 740 932 708 974 b 246 521 440 1089 53 960 l 128 521 l 128 503 l 254 503 b 328 383 272 474 304 424 b 399 229 365 322 397 261 l 351 244 b 50 89 75 333 25 163 z "},"¤":{"ha":850,"x_min":0,"x_max":0,"o":"m 608 479 b 422 293 608 376 525 293 b 235 479 318 293 235 376 b 422 667 235 582 318 667 b 608 479 525 667 608 582 z m 696 286 b 757 479 735 342 757 407 b 696 674 757 551 735 619 l 819 796 l 739 876 l 615 754 b 422 815 561 793 493 815 b 226 754 350 815 282 793 l 104 876 l 24 796 l 147 674 b 86 479 108 619 86 551 b 147 286 86 407 108 342 l 24 164 l 104 82 l 226 206 b 422 144 282 167 350 144 b 615 206 493 144 561 167 l 739 82 l 819 164 z "},"¥":{"ha":1004,"x_min":0,"x_max":0,"o":"m 615 978 l 615 960 b 706 679 800 960 722 713 b 604 471 686 636 604 471 l 406 803 b 410 961 313 963 368 961 l 410 978 l -21 978 l -21 961 b 107 851 15 960 46 957 b 338 454 107 851 164 758 l 150 454 l 150 436 l 347 436 b 378 383 353 426 372 393 l 378 324 l 150 324 l 150 306 l 378 306 l 378 163 b 293 18 378 68 351 18 l 293 0 l 699 0 l 699 18 b 615 163 640 18 615 68 l 615 306 l 839 306 l 839 324 l 615 324 l 615 436 l 839 436 l 839 454 l 615 454 l 718 664 b 1025 960 844 915 964 960 l 1025 978 z "},"¦":{"ha":331,"x_min":0,"x_max":0,"o":"m 232 1021 l 99 1021 l 99 500 l 232 500 z m 232 258 l 99 258 l 99 -265 l 232 -265 z "},"§":{"ha":786,"x_min":0,"x_max":0,"o":"m 258 524 b 293 499 264 518 276 508 b 457 396 314 485 403 431 b 467 389 460 393 463 390 b 597 282 510 360 568 325 b 543 115 628 236 626 182 b 494 149 533 124 515 136 b 333 249 472 163 386 214 b 331 251 332 250 332 251 b 197 361 286 282 225 317 b 258 524 168 406 172 460 z m 665 -139 b 558 101 676 -36 631 43 b 560 568 810 246 735 457 l 388 672 b 276 849 299 728 269 785 b 460 979 285 935 354 992 b 499 951 499 975 507 954 b 449 906 475 944 460 929 b 496 776 424 857 446 799 b 626 824 544 753 603 774 b 614 925 642 857 635 899 b 461 997 594 947 538 989 b 133 782 365 1006 156 1007 b 242 538 124 678 160 599 b 233 75 -14 390 60 186 l 406 -31 b 513 -206 494 -87 518 -142 b 335 -335 503 -292 438 -346 b 289 -310 294 -331 279 -312 b 344 -262 311 -303 333 -286 b 297 -133 368 -214 346 -156 b 168 -181 247 -110 190 -132 b 179 -282 151 -214 158 -256 b 333 -353 197 -304 256 -344 b 665 -139 428 -362 643 -364 z "},"¨":{"ha":461,"x_min":0,"x_max":0,"o":"m 272 883 b 363 793 272 833 314 793 b 453 883 411 793 453 833 b 363 972 453 932 411 972 b 272 883 314 972 272 932 z m 11 883 b 101 793 11 833 53 793 b 190 883 150 793 190 833 b 101 972 190 932 150 972 b 11 883 53 972 11 932 z "},"©":{"ha":1132,"x_min":0,"x_max":0,"o":"m 747 399 b 579 236 722 260 643 236 b 451 501 504 236 451 285 b 579 767 451 717 501 767 b 747 604 642 767 724 747 l 765 604 l 771 743 b 579 785 738 771 671 785 b 283 501 411 785 283 668 b 579 218 283 335 411 218 b 771 261 663 218 731 233 l 765 399 z m 1089 511 b 565 1035 1089 800 854 1035 b 42 511 275 1035 42 800 b 565 -12 42 222 275 -12 b 1089 511 854 -12 1089 222 z m 981 511 b 565 94 981 282 793 94 b 149 511 336 94 149 282 b 565 929 149 740 336 929 b 981 511 793 929 981 740 z "},"ª":{"ha":460,"x_min":0,"x_max":0,"o":"m 218 804 b 218 710 218 804 218 710 b 179 676 211 693 197 676 b 140 721 140 676 140 721 b 218 804 140 757 153 789 z m 375 688 b 360 674 371 674 360 674 b 324 725 324 671 324 725 l 324 833 b 189 978 324 918 285 978 b 115 964 189 978 146 981 b 67 918 86 949 74 932 b 64 869 58 904 56 886 b 126 850 75 849 103 839 b 146 913 149 863 157 889 b 118 933 139 924 131 931 b 124 950 104 936 114 946 b 218 867 175 974 218 942 l 218 822 b 29 703 89 790 29 779 b 117 629 29 635 103 629 b 219 683 168 629 210 651 b 300 629 228 629 300 629 b 389 682 349 629 382 653 z "},"«":{"ha":925,"x_min":0,"x_max":0,"o":"m 801 701 l 442 369 l 801 46 l 801 107 l 635 369 l 801 640 z m 479 701 l 121 369 l 479 46 l 479 107 l 313 369 l 479 640 z "},"¬":{"ha":926,"x_min":0,"x_max":0,"o":"m 57 571 l 57 429 l 728 429 l 728 92 l 871 92 l 871 571 z "},"­":{"ha":617,"x_min":0,"x_max":0,"o":"m 526 272 l 526 433 l 89 433 l 89 272 z "},"®":{"ha":1138,"x_min":0,"x_max":0,"o":"m 640 633 b 522 508 640 507 607 508 l 499 508 l 499 760 l 522 760 b 640 633 601 760 640 760 z m 1090 511 b 567 1035 1090 800 856 1035 b 43 511 278 1035 43 800 b 567 -12 43 222 278 -12 b 1090 511 856 -12 1090 222 z m 982 511 b 567 96 982 282 796 96 b 151 511 338 96 151 282 b 567 928 151 740 338 928 b 982 511 796 928 982 740 z m 864 272 b 783 343 844 274 799 286 b 629 501 747 476 696 504 b 789 636 710 507 789 535 b 522 778 789 760 671 778 l 325 778 l 325 763 b 371 701 357 763 371 749 l 371 350 b 325 272 371 288 357 272 l 325 254 l 544 254 l 544 272 b 499 350 513 272 499 289 l 499 490 l 535 490 b 631 421 535 490 614 490 b 756 254 665 272 664 256 l 864 254 z "},"¯":{"ha":500,"x_min":0,"x_max":0,"o":"m -22 922 l -22 804 l 524 804 l 524 922 z "},"°":{"ha":529,"x_min":0,"x_max":0,"o":"m 261 947 b 365 843 318 947 365 900 b 261 739 365 785 318 739 b 154 843 203 739 154 785 b 261 947 154 900 203 947 z m 440 843 b 260 1024 440 944 358 1024 b 79 843 160 1024 79 944 b 260 665 79 744 160 665 b 440 843 358 665 440 744 z "},"±":{"ha":844,"x_min":0,"x_max":0,"o":"m 479 535 l 479 736 l 354 736 l 354 535 l 57 535 l 57 408 l 354 408 l 354 190 l 479 190 l 479 408 l 778 408 l 778 535 z m 57 -7 l 778 -7 l 778 118 l 57 118 z "},"²":{"ha":375,"x_min":0,"x_max":0,"o":"m 292 653 b 235 617 278 628 256 617 l 115 617 b 165 688 115 617 149 667 b 279 869 207 742 279 800 b 165 978 279 926 229 978 b 39 832 110 978 25 929 l 56 832 b 167 717 67 942 288 906 l 31 526 l 275 526 l 310 653 z "},"³":{"ha":392,"x_min":0,"x_max":0,"o":"m 168 518 b 338 667 238 518 340 547 b 235 772 336 710 300 760 b 178 976 347 853 283 976 b 64 867 132 976 63 942 l 78 865 b 175 892 93 908 146 914 b 125 758 214 864 219 781 l 125 743 b 233 646 213 736 228 676 b 168 532 243 588 219 532 b 115 547 118 532 107 546 b 144 574 129 551 138 560 b 119 640 156 599 144 629 b 51 615 93 653 64 640 b 58 563 43 597 47 576 b 168 518 83 535 118 518 z "},"´":{"ha":592,"x_min":0,"x_max":0,"o":"m 121 775 l 203 775 l 583 942 l 393 1001 z "},"µ":{"ha":813,"x_min":0,"x_max":0,"o":"m 717 654 l 447 626 l 447 610 b 513 499 518 601 513 583 l 513 178 b 413 88 493 124 451 88 b 303 203 332 88 303 125 l 303 654 l 21 626 l 21 610 b 93 500 97 600 93 585 l 93 -342 b 133 -368 93 -342 93 -375 l 375 -332 l 375 -315 b 303 -226 317 -310 303 -294 l 303 -12 b 513 136 371 -12 485 38 l 513 14 b 551 -12 513 14 514 -19 l 789 22 l 789 40 b 717 124 731 47 717 57 z "},"¶":{"ha":1000,"x_min":0,"x_max":0,"o":"m 788 761 b 901 958 788 858 832 958 l 901 978 l 656 978 l 656 -368 l 892 -368 l 892 -350 b 788 -146 825 -350 788 -254 z m 411 978 l 410 978 b 51 678 243 976 51 926 b 410 385 51 429 221 385 l 410 -146 b 224 -350 410 -326 290 -350 l 224 -368 l 543 -368 l 543 978 z "},"·":{"ha":393,"x_min":0,"x_max":0,"o":"m 196 328 b 283 415 244 328 283 367 b 196 503 283 463 244 503 b 108 415 149 503 108 463 b 196 328 108 367 149 328 z "},"¸":{"ha":389,"x_min":0,"x_max":0,"o":"m 172 -6 l 121 -143 b 249 -232 225 -125 249 -208 b 186 -301 249 -268 228 -301 b 151 -287 151 -301 146 -290 b 169 -262 160 -283 167 -276 b 133 -208 175 -237 158 -214 b 76 -242 107 -201 81 -217 b 93 -289 72 -260 81 -279 b 190 -318 104 -299 135 -318 b 342 -207 244 -318 331 -300 b 161 -87 350 -132 289 -58 l 190 -6 z "},"¹":{"ha":336,"x_min":0,"x_max":0,"o":"m 261 546 b 222 597 239 546 222 557 l 222 978 l 181 978 l 56 881 l 69 864 b 124 851 69 864 124 901 l 124 597 b 76 546 124 558 104 546 l 76 528 l 261 528 l 261 546 z "},"º":{"ha":478,"x_min":0,"x_max":0,"o":"m 303 744 b 242 536 303 578 289 536 b 179 744 196 536 179 578 b 242 964 179 913 194 964 b 303 744 288 964 303 913 z m 435 744 b 242 982 435 867 385 982 b 47 744 99 982 47 867 b 242 518 47 624 99 518 b 435 744 385 518 435 624 z "},"»":{"ha":908,"x_min":0,"x_max":0,"o":"m 115 640 l 282 369 l 115 107 l 115 46 l 475 369 l 115 701 z m 438 640 l 604 369 l 438 107 l 438 46 l 796 369 l 438 701 z "},"¼":{"ha":919,"x_min":0,"x_max":0,"o":"m 621 192 l 532 192 b 529 231 518 192 503 192 l 621 361 z m 792 986 l 18 50 l 132 50 l 907 986 z m 297 539 b 257 596 274 539 257 550 l 257 1035 l 211 1035 l 76 924 l 89 907 b 149 896 89 907 149 950 l 149 596 b 99 539 149 551 129 539 l 99 521 l 297 521 z m 806 142 l 806 192 l 738 192 l 738 504 l 703 510 l 453 154 l 453 142 l 621 142 l 621 106 b 574 18 621 21 604 18 l 574 0 l 785 0 l 785 18 b 738 110 754 18 738 19 l 738 142 z "},"½":{"ha":914,"x_min":0,"x_max":0,"o":"m 846 147 b 774 107 829 119 799 107 l 647 107 b 701 183 647 107 683 161 b 825 394 749 244 825 315 b 694 515 825 460 767 518 b 553 347 638 514 536 460 l 569 347 b 700 217 592 463 832 424 l 547 0 l 819 0 l 860 147 z m 796 986 l 22 50 l 136 50 l 911 986 z m 301 539 b 261 596 278 539 261 550 l 261 1035 l 215 1035 l 81 924 l 93 907 b 153 896 93 907 153 950 l 153 596 b 103 539 153 551 133 539 l 103 521 l 301 521 z "},"¾":{"ha":911,"x_min":0,"x_max":0,"o":"m 622 192 l 533 192 b 531 231 519 192 504 192 l 622 361 z m 793 986 l 19 50 l 133 50 l 908 986 z m 183 517 b 374 685 261 517 376 547 b 258 806 372 736 331 793 b 193 1036 386 896 314 1036 b 65 913 140 1036 64 997 l 83 910 b 190 942 100 958 158 965 b 132 792 235 910 240 818 l 132 775 b 256 663 233 768 249 699 b 183 535 267 594 247 535 b 129 554 125 535 121 551 b 156 579 139 557 147 564 b 126 656 169 607 156 642 b 50 626 97 668 64 656 b 57 567 42 607 44 582 b 183 517 85 535 124 517 z m 807 142 l 807 192 l 739 192 l 739 504 l 704 510 l 454 154 l 454 142 l 622 142 l 622 106 b 575 18 622 21 606 18 l 575 0 l 786 0 l 786 18 b 739 110 756 18 739 19 l 739 142 z "},"¿":{"ha":860,"x_min":0,"x_max":0,"o":"m 475 658 b 356 539 410 658 356 606 b 475 419 356 472 410 419 b 594 539 542 419 594 472 b 475 658 594 606 542 658 z m 351 169 b 140 -139 271 149 132 64 b 631 -326 150 -331 408 -426 b 756 -181 708 -292 751 -225 b 731 -78 760 -146 758 -107 b 583 -69 692 -36 624 -31 b 579 -217 543 -108 540 -174 b 649 -249 599 -236 622 -249 b 624 -311 665 -247 669 -293 b 381 -136 510 -357 393 -278 b 450 119 371 -17 388 60 b 501 328 535 199 508 282 l 478 324 b 351 169 485 240 426 189 z "},"À":{"ha":1017,"x_min":0,"x_max":0,"o":"m 388 649 l 250 289 l 540 289 z m 1000 17 l 1000 0 l 558 0 l 558 17 b 590 172 668 17 590 172 l 547 271 l 246 271 b 394 17 232 239 201 11 l 394 0 l 24 0 l 24 17 b 239 307 63 19 118 19 l 500 978 l 515 978 b 879 125 861 167 879 125 b 1000 17 928 14 968 19 z m 429 1247 l 239 1188 l 619 1021 l 701 1021 z "},"Á":{"ha":1017,"x_min":0,"x_max":0,"o":""},"Â":{"ha":1017,"x_min":0,"x_max":0,"o":"m 388 649 l 250 289 l 540 289 z m 1000 17 l 1000 0 l 558 0 l 558 17 b 590 172 668 17 590 172 l 547 271 l 246 271 b 394 17 232 239 201 11 l 394 0 l 24 0 l 24 17 b 239 307 63 19 118 19 l 500 978 l 515 978 b 879 125 861 167 879 125 b 1000 17 928 14 968 19 z m 342 1021 l 510 1131 l 678 1021 l 732 1021 l 510 1285 l 288 1021 z "},"Ã":{"ha":1017,"x_min":0,"x_max":0,"o":"m 572 1022 b 856 1211 572 1022 747 963 l 843 1218 b 611 1178 806 1143 660 1158 l 446 1240 b 163 1051 446 1240 269 1307 l 176 1047 b 406 1085 213 1122 360 1103 z m 540 289 l 250 289 l 388 649 z m 1000 17 b 879 125 968 19 928 14 b 515 978 879 125 861 167 l 500 978 l 239 307 b 24 17 118 19 63 19 l 24 0 l 394 0 l 394 17 b 246 271 201 11 232 239 l 547 271 l 590 172 b 558 17 590 172 668 17 l 558 0 l 1000 0 z "},"Ä":{"ha":1017,"x_min":0,"x_max":0,"o":"m 547 1157 b 638 1067 547 1107 589 1067 b 728 1157 686 1067 728 1107 b 638 1246 728 1206 686 1246 b 547 1157 589 1246 547 1206 z m 286 1157 b 376 1067 286 1107 328 1067 b 465 1157 425 1067 465 1107 b 376 1246 465 1206 425 1246 b 286 1157 328 1246 286 1206 z m 540 289 l 250 289 l 388 649 z m 1000 17 b 879 125 968 19 928 14 b 515 978 879 125 861 167 l 500 978 l 239 307 b 24 17 118 19 63 19 l 24 0 l 394 0 l 394 17 b 246 271 201 11 232 239 l 547 271 l 590 172 b 558 17 590 172 668 17 l 558 0 l 1000 0 z "},"Å":{"ha":1017,"x_min":0,"x_max":0,"o":"m 506 1365 b 361 1222 426 1365 361 1303 b 506 1079 361 1143 426 1079 b 651 1222 586 1079 651 1143 b 506 1365 651 1303 586 1365 z m 506 1153 b 438 1222 468 1153 438 1185 b 506 1292 438 1261 468 1292 b 575 1222 544 1292 575 1261 b 506 1153 575 1185 544 1153 z m 388 649 l 250 289 l 540 289 z m 1000 17 l 1000 0 l 558 0 l 558 17 b 590 172 668 17 590 172 l 547 271 l 246 271 b 394 17 232 239 201 11 l 394 0 l 24 0 l 24 17 b 239 307 63 19 118 19 l 500 978 l 515 978 b 879 125 861 167 879 125 b 1000 17 928 14 968 19 z "},"Æ":{"ha":1400,"x_min":0,"x_max":0,"o":"m 631 321 l 311 321 l 624 864 b 631 786 629 840 631 815 z m 1301 286 b 903 18 1274 11 903 18 l 867 18 l 867 483 l 935 483 b 1115 329 936 483 1100 488 l 1133 329 l 1133 656 l 1115 656 b 935 501 1100 497 936 501 l 867 501 l 867 960 l 903 960 b 1282 703 903 960 1267 960 l 1300 703 l 1300 978 l 526 978 l 526 960 b 617 892 565 960 599 942 l 290 325 b 3 17 119 40 43 19 l 3 0 l 383 0 l 383 17 b 303 303 272 17 196 108 l 631 303 l 631 189 b 538 18 631 69 596 18 l 538 0 l 1319 0 l 1319 286 z "},"Ç":{"ha":972,"x_min":0,"x_max":0,"o":"m 903 313 l 886 313 b 578 6 844 99 708 6 b 351 489 428 6 351 107 b 578 972 351 871 424 972 b 886 667 707 972 826 906 l 903 667 l 919 917 b 578 990 860 965 739 990 b 56 489 281 990 56 785 b 544 -12 56 204 264 1 l 497 -140 b 625 -231 601 -122 625 -207 b 563 -299 625 -267 604 -299 b 528 -286 528 -299 522 -289 b 546 -261 536 -282 542 -274 b 510 -206 550 -235 535 -211 b 453 -240 483 -200 458 -215 b 469 -286 450 -258 457 -278 b 567 -317 481 -297 511 -317 b 718 -204 621 -317 707 -297 b 538 -85 726 -129 665 -56 l 563 -12 b 919 64 731 -12 850 17 z "},"È":{"ha":915,"x_min":0,"x_max":0,"o":"m 835 288 l 835 0 l 38 0 l 38 18 b 118 190 96 18 118 96 l 118 786 b 38 960 118 872 99 960 l 38 978 l 817 978 l 817 703 l 799 703 b 404 960 782 958 404 960 l 354 960 l 354 503 l 436 503 b 631 657 436 503 615 500 l 649 657 l 649 331 l 631 331 b 436 485 615 486 436 485 l 354 485 l 354 18 l 404 18 b 817 288 404 18 788 10 z m 372 1247 l 182 1188 l 563 1021 l 644 1021 z "},"É":{"ha":915,"x_min":0,"x_max":0,"o":"m 817 288 b 404 18 788 10 404 18 l 354 18 l 354 485 l 436 485 b 631 331 436 485 615 486 l 649 331 l 649 657 l 631 657 b 436 503 615 500 436 503 l 354 503 l 354 960 l 404 960 b 799 703 404 960 782 958 l 817 703 l 817 978 l 38 978 l 38 960 b 118 786 99 960 118 872 l 118 190 b 38 18 118 96 96 18 l 38 0 l 835 0 l 835 288 z m 254 1021 l 336 1021 l 717 1188 l 526 1247 z "},"Ê":{"ha":915,"x_min":0,"x_max":0,"o":"m 835 288 l 835 0 l 38 0 l 38 18 b 118 190 96 18 118 96 l 118 786 b 38 960 118 872 99 960 l 38 978 l 817 978 l 817 703 l 799 703 b 404 960 782 958 404 960 l 354 960 l 354 503 l 436 503 b 631 657 436 503 615 500 l 649 657 l 649 331 l 631 331 b 436 485 615 486 436 485 l 354 485 l 354 18 l 404 18 b 817 288 404 18 788 10 z m 294 1021 l 463 1131 l 631 1021 l 685 1021 l 463 1285 l 240 1021 z "},"Ë":{"ha":915,"x_min":0,"x_max":0,"o":"m 492 1157 b 582 1067 492 1107 533 1067 b 672 1157 631 1067 672 1107 b 582 1246 672 1206 631 1246 b 492 1157 533 1246 492 1206 z m 231 1157 b 321 1067 231 1107 272 1067 b 410 1157 369 1067 410 1107 b 321 1246 410 1206 369 1246 b 231 1157 272 1246 231 1206 z m 817 288 b 404 18 788 10 404 18 l 354 18 l 354 485 l 436 485 b 631 331 436 485 615 486 l 649 331 l 649 657 l 631 657 b 436 503 615 500 436 503 l 354 503 l 354 960 l 404 960 b 799 703 404 960 782 958 l 817 703 l 817 978 l 38 978 l 38 960 b 118 786 99 960 118 872 l 118 190 b 38 18 118 96 96 18 l 38 0 l 835 0 l 835 288 z "},"Ì":{"ha":553,"x_min":0,"x_max":0,"o":"m 503 978 l 503 960 b 399 836 443 960 399 940 l 399 163 b 503 18 399 49 444 18 l 503 0 l 54 0 l 54 18 b 158 163 114 18 158 49 l 158 836 b 54 960 158 940 115 960 l 54 978 z m 192 1247 l 1 1188 l 382 1021 l 464 1021 z "},"Í":{"ha":553,"x_min":0,"x_max":0,"o":"m 54 978 l 54 960 b 158 836 115 960 158 940 l 158 163 b 54 18 158 49 114 18 l 54 0 l 503 0 l 503 18 b 399 163 444 18 399 49 l 399 836 b 503 960 399 940 443 960 l 503 978 z m 75 1021 l 157 1021 l 538 1188 l 347 1247 z "},"Î":{"ha":553,"x_min":0,"x_max":0,"o":"m 503 978 l 503 960 b 399 836 443 960 399 940 l 399 163 b 503 18 399 49 444 18 l 503 0 l 54 0 l 54 18 b 158 163 114 18 158 49 l 158 836 b 54 960 158 940 115 960 l 54 978 z m 113 1021 l 281 1131 l 449 1021 l 503 1021 l 281 1285 l 58 1021 z "},"Ï":{"ha":553,"x_min":0,"x_max":0,"o":"m 319 1157 b 410 1067 319 1107 361 1067 b 500 1157 458 1067 500 1107 b 410 1246 500 1206 458 1246 b 319 1157 361 1246 319 1206 z m 58 1157 b 149 1067 58 1107 100 1067 b 238 1157 197 1067 238 1107 b 149 1246 238 1206 197 1246 b 58 1157 100 1246 58 1206 z m 54 978 l 54 960 b 158 836 115 960 158 940 l 158 163 b 54 18 158 49 114 18 l 54 0 l 503 0 l 503 18 b 399 163 444 18 399 49 l 399 836 b 503 960 399 940 443 960 l 503 978 z "},"Ð":{"ha":1110,"x_min":0,"x_max":0,"o":"m 744 485 b 447 18 744 42 597 18 l 386 18 l 386 481 l 579 481 l 579 499 l 386 499 l 386 960 l 447 960 b 744 485 601 960 744 924 z m 1040 485 b 447 978 1040 892 724 978 l 58 978 l 58 960 b 151 786 119 960 151 872 l 151 499 l 43 499 l 43 481 l 151 481 l 151 190 b 58 18 151 96 118 18 l 58 0 l 447 0 b 1040 485 724 0 1040 79 z "},"Ñ":{"ha":1167,"x_min":0,"x_max":0,"o":"m 649 1057 b 932 1239 649 1057 824 990 l 919 1246 b 688 1199 882 1171 736 1179 l 522 1261 b 239 1079 522 1261 346 1335 l 253 1075 b 482 1119 289 1150 436 1138 z m 935 0 l 935 646 b 1143 960 935 710 951 961 l 1143 978 l 722 978 l 722 960 b 917 646 894 961 917 710 l 917 292 l 400 978 l 8 978 l 8 960 b 178 856 44 957 92 965 l 238 775 l 238 333 b 24 18 238 278 225 18 l 24 0 l 456 0 l 456 18 b 256 333 258 18 256 278 l 256 754 l 821 0 z "},"Ò":{"ha":1096,"x_min":0,"x_max":0,"o":"m 754 482 b 550 972 754 863 714 972 b 343 482 385 972 343 863 b 550 6 343 100 385 6 b 754 482 714 6 754 100 z m 1043 482 b 550 -12 1043 206 856 -12 b 57 482 244 -12 57 206 b 550 990 57 757 244 990 b 1043 482 856 990 1043 757 z m 483 1247 l 293 1188 l 674 1021 l 756 1021 z "},"Ó":{"ha":1096,"x_min":0,"x_max":0,"o":""},"Ô":{"ha":1096,"x_min":0,"x_max":0,"o":"m 754 482 b 550 972 754 863 714 972 b 343 482 385 972 343 863 b 550 6 343 100 385 6 b 754 482 714 6 754 100 z m 1043 482 b 550 -12 1043 206 856 -12 b 57 482 244 -12 57 206 b 550 990 57 757 244 990 b 1043 482 856 990 1043 757 z m 392 1021 l 560 1131 l 728 1021 l 782 1021 l 560 1285 l 338 1021 z "},"Õ":{"ha":1096,"x_min":0,"x_max":0,"o":"m 621 1057 b 904 1239 621 1057 796 990 l 892 1246 b 660 1199 854 1171 708 1179 l 494 1261 b 211 1079 494 1261 318 1335 l 225 1075 b 454 1119 261 1150 408 1138 z m 754 482 b 550 6 754 100 714 6 b 343 482 385 6 343 100 b 550 972 343 863 385 972 b 754 482 714 972 754 863 z m 1043 482 b 550 990 1043 757 856 990 b 57 482 244 990 57 757 b 550 -12 57 206 244 -12 b 1043 482 856 -12 1043 206 z "},"Ö":{"ha":1096,"x_min":0,"x_max":0,"o":"m 592 1157 b 682 1067 592 1107 633 1067 b 772 1157 731 1067 772 1107 b 682 1246 772 1206 731 1246 b 592 1157 633 1246 592 1206 z m 331 1157 b 421 1067 331 1107 372 1067 b 510 1157 469 1067 510 1107 b 421 1246 510 1206 469 1246 b 331 1157 372 1246 331 1206 z m 754 482 b 550 6 754 100 714 6 b 343 482 385 6 343 100 b 550 972 343 863 385 972 b 754 482 714 972 754 863 z m 1043 482 b 550 990 1043 757 856 990 b 57 482 244 990 57 757 b 550 -12 57 206 244 -12 b 1043 482 856 -12 1043 206 z "},"×":{"ha":871,"x_min":0,"x_max":0,"o":"m 803 600 l 690 714 l 443 467 l 196 714 l 82 600 l 329 353 l 82 106 l 196 -8 l 443 239 l 690 -8 l 803 106 l 556 353 z "},"Ø":{"ha":1099,"x_min":0,"x_max":0,"o":"m 551 6 b 369 158 449 6 396 42 l 735 786 b 756 482 749 714 756 613 b 551 6 756 100 715 6 z m 344 482 b 551 972 344 863 386 972 b 728 815 650 972 703 931 l 363 185 b 344 482 349 256 344 353 z m 813 921 l 879 1035 l 857 1035 l 796 931 b 551 990 726 968 644 990 b 58 482 246 990 58 757 b 288 54 58 297 142 139 l 228 -49 l 250 -49 l 304 44 b 551 -12 374 8 457 -12 b 1044 482 857 -12 1044 206 b 813 921 1044 665 958 831 z "},"Ù":{"ha":1056,"x_min":0,"x_max":0,"o":"m 464 1247 l 274 1188 l 654 1021 l 736 1021 z m 479 -12 b 121 328 290 -12 121 101 l 121 838 b 38 960 121 922 99 960 l 38 978 l 457 978 l 457 960 b 364 838 397 960 364 938 l 364 318 b 590 71 364 154 458 71 b 817 318 717 71 817 167 l 817 706 b 638 960 817 763 800 960 l 638 978 l 1029 978 l 1031 960 b 835 706 847 960 835 763 l 835 318 b 479 -12 835 79 663 -12 z "},"Ú":{"ha":1056,"x_min":0,"x_max":0,"o":"m 479 -12 b 835 318 663 -12 835 79 l 835 706 b 1031 960 835 763 847 960 l 1029 978 l 638 978 l 638 960 b 817 706 800 960 817 763 l 817 318 b 590 71 817 167 717 71 b 364 318 458 71 364 154 l 364 838 b 457 960 364 938 397 960 l 457 978 l 38 978 l 38 960 b 121 838 99 960 121 922 l 121 328 b 479 -12 121 101 290 -12 z m 360 1021 l 442 1021 l 822 1188 l 632 1247 z "},"Û":{"ha":1056,"x_min":0,"x_max":0,"o":"m 386 1021 l 554 1131 l 722 1021 l 776 1021 l 554 1285 l 332 1021 z m 479 -12 b 121 328 290 -12 121 101 l 121 838 b 38 960 121 922 99 960 l 38 978 l 457 978 l 457 960 b 364 838 397 960 364 938 l 364 318 b 590 71 364 154 458 71 b 817 318 717 71 817 167 l 817 706 b 638 960 817 763 800 960 l 638 978 l 1029 978 l 1031 960 b 835 706 847 960 835 763 l 835 318 b 479 -12 835 79 663 -12 z "},"Ü":{"ha":1056,"x_min":0,"x_max":0,"o":"m 665 1058 b 763 1157 718 1058 763 1103 b 665 1251 763 1210 718 1251 b 569 1157 613 1251 569 1210 b 665 1058 569 1103 613 1058 z m 375 1058 b 471 1157 428 1058 471 1103 b 375 1251 471 1210 428 1251 b 276 1157 321 1251 276 1210 b 375 1058 276 1103 321 1058 z m 479 -12 b 835 318 663 -12 835 79 l 835 706 b 1031 960 835 763 847 960 l 1029 978 l 638 978 l 638 960 b 817 706 800 960 817 763 l 817 318 b 590 71 817 167 717 71 b 364 318 458 71 364 154 l 364 838 b 457 960 364 938 397 960 l 457 978 l 38 978 l 38 960 b 121 838 99 960 121 922 l 121 328 b 479 -12 121 101 290 -12 z "},"Ý":{"ha":1094,"x_min":0,"x_max":0,"o":"m 663 978 l 663 960 b 753 679 847 960 769 713 b 653 471 733 636 653 471 l 453 803 b 457 961 358 963 415 961 l 457 978 l 26 978 l 26 961 b 154 851 63 960 93 957 b 425 383 154 851 221 744 l 425 163 b 340 18 425 68 399 18 l 340 0 l 746 0 l 746 18 b 663 163 688 18 663 68 l 663 454 l 765 664 b 1072 960 892 915 1011 960 l 1072 978 z m 376 1021 l 458 1021 l 839 1188 l 649 1247 z "},"Þ":{"ha":957,"x_min":0,"x_max":0,"o":"m 389 786 l 414 786 b 649 524 575 786 649 788 b 414 265 649 268 583 265 l 389 265 z m 414 247 b 924 524 690 247 924 279 b 414 804 924 771 690 804 l 389 804 l 389 836 b 492 960 389 942 432 960 l 492 978 l 43 978 l 43 960 b 147 836 104 960 147 942 l 147 163 b 43 18 147 50 103 18 l 43 0 l 492 0 l 492 18 b 389 163 433 18 389 50 l 389 247 z "},"ß":{"ha":951,"x_min":0,"x_max":0,"o":"m 918 278 b 554 583 918 531 661 583 b 778 800 582 583 778 606 b 443 1038 778 1014 592 1038 b 97 678 240 1038 97 925 l 97 163 b 29 17 97 76 76 25 l 29 0 l 326 0 l 326 753 b 443 1019 326 753 321 1019 b 560 808 467 1019 560 1025 b 431 586 560 624 504 586 l 431 568 b 671 278 522 568 671 503 b 550 6 671 122 654 6 b 521 29 499 6 508 24 b 561 82 539 39 554 58 b 503 190 575 128 547 176 b 392 131 454 204 404 179 b 417 35 383 99 394 60 b 550 -12 436 11 476 -12 b 918 278 803 -12 918 82 z "},"à":{"ha":757,"x_min":0,"x_max":0,"o":"m 417 335 b 269 164 292 307 269 232 b 342 72 269 164 269 72 b 417 133 378 72 403 100 b 417 335 417 135 417 335 z m 742 88 b 571 -12 726 35 658 -12 b 418 106 571 -12 432 -12 b 224 -12 399 39 322 -12 b 57 129 197 -12 57 -1 b 417 354 57 274 172 294 l 417 442 b 240 611 417 586 336 660 b 228 569 218 600 199 578 b 279 528 250 564 267 550 b 242 408 301 485 285 432 b 122 446 199 386 144 403 b 129 539 107 478 110 515 b 229 625 144 560 165 592 b 363 654 292 658 363 654 b 619 376 544 654 619 540 l 619 169 b 686 72 619 169 619 71 b 726 96 686 72 718 72 z m 328 978 l 138 918 l 518 751 l 600 751 z "},"á":{"ha":757,"x_min":0,"x_max":0,"o":""},"â":{"ha":757,"x_min":0,"x_max":0,"o":"m 417 335 b 269 164 292 307 269 232 b 342 72 269 164 269 72 b 417 133 378 72 403 100 b 417 335 417 135 417 335 z m 742 88 b 571 -12 726 35 658 -12 b 418 106 571 -12 432 -12 b 224 -12 399 39 322 -12 b 57 129 197 -12 57 -1 b 417 354 57 274 172 294 l 417 442 b 240 611 417 586 336 660 b 228 569 218 600 199 578 b 279 528 250 564 267 550 b 242 408 301 485 285 432 b 122 446 199 386 144 403 b 129 539 107 478 110 515 b 229 625 144 560 165 592 b 363 654 292 658 363 654 b 619 376 544 654 619 540 l 619 169 b 686 72 619 169 619 71 b 726 96 686 72 718 72 z m 239 718 l 407 828 l 575 718 l 629 718 l 407 982 l 185 718 z "},"ã":{"ha":757,"x_min":0,"x_max":0,"o":"m 454 742 b 738 924 454 742 629 675 l 725 931 b 493 883 688 856 542 864 l 328 946 b 44 764 328 946 151 1019 l 58 760 b 288 804 94 835 242 822 z m 417 335 b 417 133 417 335 417 135 b 342 72 403 100 378 72 b 269 164 269 72 269 164 b 417 335 269 232 292 307 z m 726 96 b 686 72 718 72 686 72 b 619 169 619 71 619 169 l 619 376 b 363 654 619 540 544 654 b 229 625 363 654 292 658 b 129 539 165 592 144 560 b 122 446 110 515 107 478 b 242 408 144 403 199 386 b 279 528 285 432 301 485 b 228 569 267 550 250 564 b 240 611 199 578 218 600 b 417 442 336 660 417 586 l 417 354 b 57 129 172 294 57 274 b 224 -12 57 -1 197 -12 b 418 106 322 -12 399 39 b 571 -12 432 -12 571 -12 b 742 88 658 -12 726 35 z "},"ä":{"ha":757,"x_min":0,"x_max":0,"o":"m 522 760 b 611 850 571 760 611 800 b 522 939 611 899 571 939 b 432 850 472 939 432 899 b 522 760 432 800 472 760 z m 261 760 b 350 850 310 760 350 800 b 261 939 350 899 310 939 b 171 850 211 939 171 899 b 261 760 171 800 211 760 z m 417 335 b 417 133 417 335 417 135 b 342 72 403 100 378 72 b 269 164 269 72 269 164 b 417 335 269 232 292 307 z m 726 96 b 686 72 718 72 686 72 b 619 169 619 71 619 169 l 619 376 b 363 654 619 540 544 654 b 229 625 363 654 292 658 b 129 539 165 592 144 560 b 122 446 110 515 107 478 b 242 408 144 403 199 386 b 279 528 285 432 301 485 b 228 569 267 550 250 564 b 240 611 199 578 218 600 b 417 442 336 660 417 586 l 417 354 b 57 129 172 294 57 274 b 224 -12 57 -1 197 -12 b 418 106 322 -12 399 39 b 571 -12 432 -12 571 -12 b 742 88 658 -12 726 35 z "},"å":{"ha":757,"x_min":0,"x_max":0,"o":"m 322 886 b 390 954 322 924 353 954 b 458 886 429 954 458 924 b 390 817 458 847 429 817 b 322 886 353 817 322 847 z m 246 886 b 390 742 246 807 311 742 b 535 886 471 742 535 807 b 390 1031 535 965 471 1031 b 246 886 311 1031 246 965 z m 417 335 b 417 133 417 335 417 135 b 342 72 403 100 378 72 b 269 164 269 72 269 164 b 417 335 269 232 292 307 z m 726 96 b 686 72 718 72 686 72 b 619 169 619 71 619 169 l 619 376 b 363 654 619 540 544 654 b 229 625 363 654 292 658 b 129 539 165 592 144 560 b 122 446 110 515 107 478 b 242 408 144 403 199 386 b 279 528 285 432 301 485 b 228 569 267 550 250 564 b 240 611 199 578 218 600 b 417 442 336 660 417 586 l 417 354 b 57 129 172 294 57 274 b 224 -12 57 -1 197 -12 b 418 106 322 -12 399 39 b 571 -12 432 -12 571 -12 b 742 88 658 -12 726 35 z "},"æ":{"ha":1019,"x_min":0,"x_max":0,"o":"m 599 351 b 701 636 599 485 618 636 b 783 351 774 636 783 526 z m 925 189 b 747 76 904 113 824 63 b 599 333 650 94 603 160 l 961 333 b 699 654 961 572 874 654 b 514 578 622 654 572 625 b 339 654 475 622 417 654 b 217 624 339 654 279 657 b 117 539 154 590 132 560 b 111 446 99 514 94 476 b 229 408 133 403 186 386 b 267 528 274 431 290 485 b 218 571 256 550 239 564 b 228 610 190 579 206 599 b 397 440 324 660 397 585 l 397 356 b 54 129 156 297 54 271 b 210 -12 54 -12 210 -12 b 439 121 329 -12 415 53 b 690 -12 486 42 586 -12 b 944 182 869 -12 929 94 z m 397 253 b 426 142 400 215 408 175 b 325 71 411 114 376 71 b 256 163 253 71 256 163 b 397 336 256 238 324 317 b 397 253 397 336 396 271 z "},"ç":{"ha":708,"x_min":0,"x_max":0,"o":"m 639 182 b 464 111 614 136 533 104 b 285 346 357 122 285 196 b 435 636 285 558 369 636 b 514 596 504 636 528 601 b 467 540 492 586 475 567 b 529 418 450 489 478 435 b 653 482 581 403 636 431 b 628 582 663 518 651 558 b 431 654 599 611 535 654 b 61 324 181 654 61 499 b 346 -11 61 156 182 7 l 297 -140 b 425 -229 403 -122 425 -206 b 364 -299 425 -265 404 -299 b 328 -285 329 -299 322 -287 b 346 -260 336 -281 343 -274 b 310 -206 351 -235 336 -211 b 253 -239 283 -199 258 -214 b 269 -286 249 -257 258 -276 b 367 -315 282 -296 311 -315 b 518 -204 421 -315 507 -297 b 338 -85 526 -129 467 -56 l 363 -12 b 381 -12 369 -12 378 -12 b 654 174 554 -12 644 96 z "},"è":{"ha":736,"x_min":0,"x_max":0,"o":"m 494 351 b 388 636 494 526 457 636 b 269 351 314 636 269 485 z m 679 333 l 269 333 b 436 76 275 160 343 97 b 642 186 508 60 611 94 l 660 179 b 368 -12 640 92 549 -12 b 50 318 186 -12 50 143 b 388 654 50 535 207 654 b 679 333 563 654 679 572 z m 301 978 l 111 918 l 492 751 l 574 751 z "},"é":{"ha":736,"x_min":0,"x_max":0,"o":"m 269 351 b 388 636 269 485 314 636 b 494 351 457 636 494 526 z m 679 333 b 388 654 679 572 563 654 b 50 318 207 654 50 535 b 368 -12 50 143 186 -12 b 660 179 549 -12 640 92 l 642 186 b 436 76 611 94 508 60 b 269 333 343 97 275 160 z m 197 751 l 279 751 l 660 918 l 469 978 z "},"ê":{"ha":736,"x_min":0,"x_max":0,"o":"m 494 351 b 388 636 494 526 457 636 b 269 351 314 636 269 485 z m 679 333 l 269 333 b 436 76 275 160 343 97 b 642 186 508 60 611 94 l 660 179 b 368 -12 640 92 549 -12 b 50 318 186 -12 50 143 b 388 654 50 535 207 654 b 679 333 563 654 679 572 z m 225 718 l 393 828 l 561 718 l 615 718 l 393 982 l 171 718 z "},"ë":{"ha":736,"x_min":0,"x_max":0,"o":"m 503 760 b 592 850 551 760 592 800 b 503 939 592 899 551 939 b 413 850 453 939 413 899 b 503 760 413 800 453 760 z m 679 333 b 388 654 679 572 563 654 b 50 318 207 654 50 535 b 368 -12 50 143 186 -12 b 660 179 549 -12 640 92 l 642 186 b 436 76 611 94 508 60 b 269 333 343 97 275 160 z m 242 760 b 331 850 290 760 331 800 b 242 939 331 899 290 939 b 151 850 192 939 151 899 b 242 760 151 800 192 760 z m 269 351 b 388 636 269 485 314 636 b 494 351 457 636 494 526 z "},"ì":{"ha":421,"x_min":0,"x_max":0,"o":"m 369 17 l 369 0 l 53 0 l 53 17 b 108 163 106 33 108 92 l 108 486 b 36 579 108 535 93 554 l 36 597 l 313 654 l 313 163 b 369 17 313 86 319 31 z m 122 978 l -68 918 l 313 751 l 394 751 z "},"í":{"ha":421,"x_min":0,"x_max":0,"o":"m 369 17 b 313 163 319 31 313 86 l 313 654 l 36 597 l 36 579 b 108 486 93 554 108 535 l 108 163 b 53 17 108 92 106 33 l 53 0 l 369 0 z m 33 751 l 115 751 l 496 918 l 306 978 z "},"î":{"ha":421,"x_min":0,"x_max":0,"o":"m 369 17 l 369 0 l 53 0 l 53 17 b 108 163 106 33 108 92 l 108 486 b 36 579 108 535 93 554 l 36 597 l 313 654 l 313 163 b 369 17 313 86 319 31 z m 50 718 l 218 828 l 386 718 l 440 718 l 218 982 l -4 718 z "},"ï":{"ha":421,"x_min":0,"x_max":0,"o":"m 335 760 b 424 850 383 760 424 800 b 335 939 424 899 383 939 b 244 850 285 939 244 899 b 335 760 244 800 285 760 z m 74 760 b 163 850 122 760 163 800 b 74 939 163 899 122 939 b -17 850 24 939 -17 899 b 74 760 -17 800 24 760 z m 369 17 b 313 163 319 31 313 86 l 313 654 l 38 597 l 38 579 b 108 486 94 554 108 535 l 108 163 b 54 17 108 92 107 33 l 54 0 l 369 0 z "},"ð":{"ha":819,"x_min":0,"x_max":0,"o":"m 403 557 b 525 463 456 557 525 531 b 401 6 525 156 504 6 b 281 275 301 6 281 60 b 403 557 281 456 333 557 z m 775 442 b 576 900 775 668 694 817 l 706 967 l 692 982 l 558 913 b 253 990 474 964 364 990 l 253 972 b 457 861 321 972 404 953 l 214 736 l 226 721 l 467 843 b 525 513 501 772 522 665 b 344 607 496 582 408 607 b 53 303 119 607 53 456 b 401 -12 53 88 201 -12 b 775 442 644 -12 775 165 z "},"ñ":{"ha":788,"x_min":0,"x_max":0,"o":"m 454 742 b 738 924 454 742 629 675 l 725 931 b 493 883 688 856 542 864 l 328 946 b 44 764 328 946 151 1019 l 57 760 b 288 804 94 835 242 822 z m 754 17 b 697 164 704 29 697 88 l 697 443 b 496 654 697 610 606 654 b 289 513 414 654 322 592 l 289 654 l 13 597 l 13 579 b 83 488 69 554 83 536 l 83 161 b 29 17 83 90 82 32 l 29 0 l 346 0 l 346 17 b 289 161 296 31 289 85 l 289 469 b 389 554 299 513 346 554 b 493 438 457 554 493 511 l 493 164 b 438 17 493 93 490 32 l 438 0 l 754 0 z "},"ò":{"ha":790,"x_min":0,"x_max":0,"o":"m 503 321 b 401 636 503 572 489 636 b 300 321 314 636 300 572 b 401 6 300 69 314 6 b 503 321 489 6 503 69 z m 746 321 b 401 -12 746 139 632 -12 b 57 321 172 -12 57 139 b 401 654 57 504 172 654 b 746 321 632 654 746 504 z m 319 978 l 129 918 l 510 751 l 592 751 z "},"ó":{"ha":790,"x_min":0,"x_max":0,"o":"m 503 321 b 401 6 503 69 489 6 b 300 321 314 6 300 69 b 401 636 300 572 314 636 b 503 321 489 636 503 572 z m 746 321 b 401 654 746 504 632 654 b 57 321 172 654 57 504 b 401 -12 57 139 172 -12 b 746 321 632 -12 746 139 z m 214 751 l 296 751 l 676 918 l 486 978 z "},"ô":{"ha":790,"x_min":0,"x_max":0,"o":"m 503 321 b 401 636 503 572 489 636 b 300 321 314 636 300 572 b 401 6 300 69 314 6 b 503 321 489 6 503 69 z m 746 321 b 401 -12 746 139 632 -12 b 57 321 172 -12 57 139 b 401 654 57 504 172 654 b 746 321 632 654 746 504 z m 240 718 l 408 828 l 576 718 l 631 718 l 408 982 l 186 718 z "},"õ":{"ha":790,"x_min":0,"x_max":0,"o":"m 301 804 l 467 742 b 751 924 467 742 642 675 l 738 931 b 507 883 700 856 554 864 l 342 946 b 58 764 342 946 165 1019 l 71 760 b 301 804 108 835 254 822 z m 503 321 b 401 636 503 572 489 636 b 300 321 314 636 300 572 b 401 6 300 69 314 6 b 503 321 489 6 503 69 z m 746 321 b 401 -12 746 139 632 -12 b 57 321 172 -12 57 139 b 401 654 57 504 172 654 b 746 321 632 654 746 504 z "},"ö":{"ha":790,"x_min":0,"x_max":0,"o":"m 532 760 b 621 850 581 760 621 800 b 532 939 621 899 581 939 b 442 850 482 939 442 899 b 532 760 442 800 482 760 z m 271 760 b 360 850 319 760 360 800 b 271 939 360 899 319 939 b 181 850 221 939 181 899 b 271 760 181 800 221 760 z m 503 321 b 401 6 503 69 489 6 b 300 321 314 6 300 69 b 401 636 300 572 314 636 b 503 321 489 636 503 572 z m 746 321 b 401 654 746 504 632 654 b 57 321 172 654 57 504 b 401 -12 57 139 172 -12 b 746 321 632 -12 746 139 z "},"÷":{"ha":868,"x_min":0,"x_max":0,"o":"m 433 583 b 535 685 489 583 535 629 b 433 786 535 739 489 786 b 333 685 378 786 333 739 b 433 583 333 629 378 583 z m 433 -18 b 535 83 489 -18 535 26 b 433 183 535 138 489 183 b 333 83 378 183 333 138 b 433 -18 333 26 378 -18 z m 807 308 l 807 458 l 63 458 l 63 308 z "},"ø":{"ha":790,"x_min":0,"x_max":0,"o":"m 503 321 b 401 6 503 69 489 6 b 307 140 340 6 317 36 l 497 465 b 503 321 501 426 503 379 z m 151 -93 l 171 -93 l 236 19 b 401 -12 283 -1 338 -12 b 746 321 632 -12 746 139 b 583 613 746 446 694 556 l 653 729 l 632 729 l 568 619 b 401 654 522 640 465 654 b 57 321 172 654 57 504 b 222 28 57 194 111 83 z m 303 171 b 300 321 300 210 300 260 b 401 636 300 572 314 636 b 496 494 463 636 486 600 z "},"ù":{"ha":815,"x_min":0,"x_max":0,"o":"m 792 42 l 792 25 l 556 -11 b 517 15 518 -17 517 15 l 517 133 b 301 -12 494 57 403 -12 b 101 200 192 -12 101 33 l 101 503 b 24 610 101 586 104 599 l 24 626 l 307 654 l 307 204 b 411 89 307 126 335 89 b 517 172 450 89 494 115 l 517 499 b 451 610 517 583 522 601 l 451 626 l 721 654 l 721 125 b 792 42 721 58 733 49 z m 319 978 l 129 918 l 510 751 l 592 751 z "},"ú":{"ha":815,"x_min":0,"x_max":0,"o":""},"û":{"ha":815,"x_min":0,"x_max":0,"o":"m 792 42 l 792 25 l 556 -11 b 517 15 518 -17 517 15 l 517 133 b 301 -12 494 57 403 -12 b 101 200 192 -12 101 33 l 101 503 b 24 610 101 586 104 599 l 24 626 l 307 654 l 307 204 b 411 89 307 126 335 89 b 517 172 450 89 494 115 l 517 499 b 451 610 517 583 522 601 l 451 626 l 721 654 l 721 125 b 792 42 721 58 733 49 z m 244 718 l 413 828 l 581 718 l 635 718 l 413 982 l 190 718 z "},"ü":{"ha":815,"x_min":0,"x_max":0,"o":"m 538 758 b 626 849 586 758 626 799 b 538 938 626 897 586 938 b 447 849 488 938 447 897 b 538 758 447 799 488 758 z m 276 758 b 365 849 325 758 365 799 b 276 938 365 897 325 938 b 186 849 226 938 186 897 b 276 758 186 799 226 758 z m 792 42 b 721 125 733 49 721 58 l 721 654 l 451 626 l 451 610 b 517 499 522 601 517 583 l 517 172 b 411 89 494 115 450 89 b 307 204 335 89 307 126 l 307 654 l 24 626 l 24 610 b 101 503 104 599 101 586 l 101 200 b 301 -12 101 33 192 -12 b 517 133 403 -12 494 57 l 517 15 b 556 -11 517 15 518 -17 l 792 25 z "},"ý":{"ha":792,"x_min":0,"x_max":0,"o":"m 469 642 l 469 625 b 557 407 638 625 557 407 l 492 229 l 347 524 b 382 625 347 524 299 625 l 382 642 l 0 642 l 0 625 b 100 554 25 624 69 618 b 390 -49 100 554 347 50 l 364 -121 b 293 -192 333 -219 299 -211 b 239 -131 285 -165 267 -143 b 97 -185 185 -107 122 -131 b 151 -328 74 -239 96 -303 b 271 -314 188 -344 243 -336 b 381 -126 300 -290 342 -243 l 574 403 b 768 625 656 597 703 625 l 768 642 z m 154 751 l 236 751 l 617 918 l 426 978 z "},"þ":{"ha":881,"x_min":0,"x_max":0,"o":"m 575 307 b 433 6 575 90 522 6 b 294 196 361 6 304 63 l 294 443 b 424 604 303 531 340 604 b 575 307 529 604 575 500 z m 814 324 b 519 654 814 518 693 654 b 294 546 422 654 336 621 l 294 1017 l 19 960 l 19 943 b 90 858 76 922 90 907 l 90 -211 b 36 -350 90 -282 89 -335 l 36 -368 l 351 -368 l 351 -350 b 294 -211 303 -337 294 -287 l 294 25 b 463 -12 336 1 393 -12 b 814 324 649 -12 814 74 z "},"ÿ":{"ha":792,"x_min":0,"x_max":0,"o":"m 269 760 b 358 851 318 760 358 801 b 269 940 358 900 318 940 b 179 851 219 940 179 900 b 269 760 179 801 219 760 z m 531 760 b 619 851 579 760 619 801 b 531 940 619 900 579 940 b 440 851 481 940 440 900 b 531 760 440 801 481 760 z m 471 625 b 558 407 639 625 558 407 l 493 229 l 349 524 b 383 625 349 524 300 625 l 383 642 l 1 642 l 1 625 b 101 554 26 624 71 618 b 392 -49 101 554 349 50 l 365 -121 b 294 -192 335 -219 300 -211 b 240 -131 286 -165 268 -143 b 99 -185 186 -107 124 -131 b 153 -328 75 -239 97 -303 b 272 -314 189 -344 244 -336 b 382 -126 301 -290 343 -243 l 575 403 b 769 625 657 597 704 625 l 769 642 l 471 642 z "},"Ă":{"ha":1017,"x_min":0,"x_max":0,"o":""},"ă":{"ha":757,"x_min":0,"x_max":0,"o":"m 417 335 b 417 133 417 335 417 135 b 342 72 403 100 378 72 b 269 164 269 72 269 164 b 417 335 269 232 292 307 z m 726 96 b 686 72 718 72 686 72 b 619 169 619 71 619 169 l 619 376 b 363 654 619 540 544 654 b 229 625 363 654 292 658 b 129 539 165 592 144 560 b 122 446 110 515 107 478 b 242 408 144 403 199 386 b 279 528 285 432 301 485 b 228 569 267 550 250 564 b 240 611 199 578 218 600 b 417 442 336 660 417 586 l 417 354 b 57 129 172 294 57 274 b 224 -12 57 -1 197 -12 b 418 106 322 -12 399 39 b 571 -12 432 -12 571 -12 b 742 88 658 -12 726 35 z m 571 978 b 399 888 571 926 533 888 b 224 978 261 888 224 926 l 210 978 b 399 769 210 864 264 769 b 583 978 531 769 583 864 z "},"Ą":{"ha":1017,"x_min":0,"x_max":0,"o":"m 1000 17 b 879 125 968 19 928 14 b 515 978 879 125 861 167 l 500 978 l 239 307 b 24 17 118 19 63 19 l 24 0 l 394 0 l 394 17 b 246 271 201 11 232 239 l 547 271 l 590 172 b 558 17 590 172 668 17 l 558 0 l 814 0 b 696 -190 726 -39 671 -97 b 849 -262 696 -190 718 -283 b 933 -147 929 -249 933 -190 l 915 -147 b 872 -186 915 -174 885 -183 b 797 -137 872 -186 813 -194 b 888 0 786 -92 813 -42 l 1000 0 z m 540 289 l 250 289 l 388 649 z "},"ą":{"ha":757,"x_min":0,"x_max":0,"o":"m 726 96 b 686 72 718 72 686 72 b 619 169 619 71 619 169 l 619 376 b 363 654 619 540 544 654 b 229 625 363 654 292 658 b 129 539 165 592 144 560 b 122 446 110 515 107 478 b 242 408 144 403 199 386 b 279 528 285 432 301 485 b 228 569 267 550 250 564 b 240 611 199 578 218 600 b 417 442 336 660 417 586 l 417 354 b 57 129 172 294 57 274 b 224 -12 57 -1 197 -12 b 418 106 322 -12 399 39 b 535 -8 426 26 492 0 b 428 -193 454 -47 404 -104 b 581 -265 428 -193 450 -286 b 665 -150 661 -251 665 -193 l 647 -150 b 604 -189 647 -176 617 -186 b 529 -140 604 -189 544 -197 b 607 -10 518 -97 542 -50 b 742 88 676 1 728 42 z m 417 133 b 342 72 403 100 378 72 b 269 164 269 72 269 164 b 417 335 269 232 292 307 z "},"Ć":{"ha":972,"x_min":0,"x_max":0,"o":"m 886 311 b 578 4 844 97 708 4 b 351 488 428 4 351 106 b 578 971 351 868 424 971 b 886 665 707 971 826 903 l 903 665 l 919 915 b 578 989 860 964 739 989 b 56 488 281 989 56 783 b 578 -12 56 193 281 -12 b 919 63 725 -12 850 15 l 903 311 z m 308 1019 l 390 1019 l 771 1186 l 581 1246 z "},"ć":{"ha":710,"x_min":0,"x_max":0,"o":"m 629 581 b 432 654 600 610 536 654 b 63 324 182 654 63 499 b 382 -12 63 144 200 -12 b 656 174 556 -12 646 94 l 640 182 b 465 111 615 135 535 104 b 286 344 358 122 286 194 b 436 636 286 557 371 636 b 515 594 506 636 529 601 b 468 539 493 585 476 567 b 531 418 451 489 479 435 b 654 482 582 401 638 431 b 629 581 664 517 653 558 z m 192 751 l 274 751 l 654 918 l 464 978 z "},"Č":{"ha":972,"x_min":0,"x_max":0,"o":"m 886 311 b 578 4 844 97 708 4 b 351 488 428 4 351 106 b 578 971 351 868 424 971 b 886 665 707 971 826 903 l 903 665 l 919 915 b 578 989 860 964 739 989 b 56 488 281 989 56 783 b 578 -12 56 193 281 -12 b 919 63 725 -12 850 15 l 903 311 z m 364 1281 l 586 1017 l 808 1281 l 754 1281 l 586 1171 l 418 1281 z "},"č":{"ha":710,"x_min":0,"x_max":0,"o":"m 629 581 b 432 654 600 610 536 654 b 63 324 182 654 63 499 b 382 -12 63 144 200 -12 b 656 174 556 -12 646 94 l 640 182 b 465 111 615 135 535 104 b 286 344 358 122 286 194 b 436 636 286 557 371 636 b 515 594 506 636 529 601 b 468 539 493 585 476 567 b 531 418 451 489 479 435 b 654 482 582 401 638 431 b 629 581 664 517 653 558 z m 196 978 l 418 714 l 640 978 l 586 978 l 418 868 l 250 978 z "},"Ď":{"ha":1089,"x_min":0,"x_max":0,"o":""},"ď":{"ha":1076,"x_min":0,"x_max":0,"o":"m 881 978 b 814 700 881 756 814 700 l 829 681 b 1032 978 829 681 1032 782 z m 850 39 b 779 129 793 46 779 61 l 779 1036 l 506 981 l 506 964 b 576 878 563 943 576 926 l 576 603 b 400 654 540 631 486 654 b 54 324 203 654 54 550 b 354 -12 54 104 179 -12 b 576 118 436 -12 543 28 l 576 14 b 615 -11 576 14 576 -18 l 850 21 z m 576 183 b 442 56 569 114 515 56 b 294 346 335 56 294 146 b 428 636 294 569 343 636 b 576 421 503 636 576 572 z "},"Đ":{"ha":1110,"x_min":0,"x_max":0,"o":"m 744 485 b 447 18 744 42 597 18 l 386 18 l 386 481 l 579 481 l 579 499 l 386 499 l 386 960 l 447 960 b 744 485 601 960 744 924 z m 1040 485 b 447 978 1040 892 724 978 l 58 978 l 58 960 b 151 786 119 960 151 872 l 151 499 l 43 499 l 43 481 l 151 481 l 151 190 b 58 18 151 96 118 18 l 58 0 l 447 0 b 1040 485 724 0 1040 79 z "},"đ":{"ha":896,"x_min":0,"x_max":0,"o":"m 576 183 b 442 56 569 114 515 56 b 294 346 335 56 294 146 b 428 636 294 569 343 636 b 576 421 503 636 576 572 z m 450 792 l 576 792 l 576 603 b 400 654 540 631 486 654 b 54 324 203 654 54 550 b 354 -12 54 104 179 -12 b 576 118 436 -12 543 28 l 576 14 b 615 -11 576 14 576 -18 l 850 21 l 850 39 b 779 129 793 46 779 61 l 779 792 l 894 792 l 894 810 l 779 810 l 779 1036 l 506 981 l 506 964 b 576 878 563 943 576 926 l 576 810 l 450 810 z "},"Ę":{"ha":915,"x_min":0,"x_max":0,"o":"m 817 288 b 404 18 788 10 404 18 l 354 18 l 354 485 l 436 485 b 631 331 436 485 615 486 l 649 331 l 649 657 l 631 657 b 436 503 615 500 436 503 l 354 503 l 354 960 l 404 960 b 799 703 404 960 782 958 l 817 703 l 817 978 l 38 978 l 38 960 b 118 786 99 960 118 872 l 118 190 b 38 18 118 96 96 18 l 38 0 l 701 0 b 579 -192 611 -39 554 -99 b 732 -264 579 -192 601 -285 b 817 -149 813 -250 817 -192 l 799 -149 b 756 -187 799 -175 768 -185 b 681 -139 756 -187 696 -196 b 774 0 669 -93 697 -42 l 835 0 l 835 288 z "},"ę":{"ha":736,"x_min":0,"x_max":0,"o":"m 329 -144 b 414 -10 318 -100 343 -51 b 660 179 564 6 642 99 l 642 186 b 436 76 611 94 508 60 b 269 333 343 97 275 160 l 679 333 b 388 654 679 572 563 654 b 50 318 207 654 50 535 b 338 -11 50 153 171 4 b 228 -197 256 -50 204 -108 b 381 -269 228 -197 250 -290 b 465 -154 461 -256 465 -197 l 447 -154 b 404 -193 447 -181 417 -190 b 329 -144 404 -193 344 -201 z m 269 351 b 388 636 269 485 314 636 b 494 351 457 636 494 526 z "},"Ě":{"ha":915,"x_min":0,"x_max":0,"o":"m 817 288 b 404 18 788 10 404 18 l 354 18 l 354 485 l 436 485 b 631 331 436 485 615 486 l 649 331 l 649 657 l 631 657 b 436 503 615 500 436 503 l 354 503 l 354 960 l 404 960 b 799 703 404 960 782 958 l 817 703 l 817 978 l 38 978 l 38 960 b 118 786 99 960 118 872 l 118 190 b 38 18 118 96 96 18 l 38 0 l 835 0 l 835 288 z m 267 1281 l 489 1017 l 711 1281 l 657 1281 l 489 1171 l 321 1281 z "},"ě":{"ha":736,"x_min":0,"x_max":0,"o":"m 269 351 b 388 636 269 485 314 636 b 494 351 457 636 494 526 z m 679 333 b 388 654 679 572 563 654 b 50 318 207 654 50 535 b 368 -12 50 143 186 -12 b 660 179 549 -12 640 92 l 642 186 b 436 76 611 94 508 60 b 269 333 343 97 275 160 z m 175 978 l 397 714 l 619 978 l 565 978 l 397 868 l 229 978 z "},"ı":{"ha":421,"x_min":0,"x_max":0,"o":"m 369 17 b 313 163 319 31 313 86 l 313 654 l 36 597 l 36 579 b 108 486 93 554 108 535 l 108 163 b 53 17 108 92 106 33 l 53 0 l 369 0 l 369 17 z "},"Ĺ":{"ha":915,"x_min":0,"x_max":0,"o":""},"ĺ":{"ha":400,"x_min":0,"x_max":0,"o":"m 363 17 b 306 163 313 31 306 86 l 306 1036 l 29 981 l 29 964 b 101 874 86 943 101 922 l 101 163 b 46 17 101 90 99 32 l 46 0 l 363 0 z m 14 1061 l 96 1061 l 476 1228 l 286 1288 z "},"Ľ":{"ha":915,"x_min":0,"x_max":0,"o":"m 528 978 b 463 700 528 756 463 700 l 476 681 b 679 978 476 681 679 782 z m 808 301 b 406 18 785 33 465 18 l 381 18 l 381 849 b 481 960 381 949 421 960 l 481 978 l 53 978 l 53 960 b 142 858 113 960 142 943 l 142 154 b 64 18 142 60 124 18 l 64 0 l 826 0 l 826 301 z "},"ľ":{"ha":633,"x_min":0,"x_max":0,"o":"m 417 978 b 351 700 417 756 351 700 l 365 681 b 569 978 365 681 569 782 z m 363 17 b 306 163 313 31 306 86 l 306 1036 l 29 981 l 29 964 b 100 874 85 943 100 922 l 100 163 b 46 17 100 90 99 32 l 46 0 l 363 0 z "},"Ł":{"ha":915,"x_min":0,"x_max":0,"o":"m 810 301 b 407 18 810 172 657 18 l 382 18 l 382 518 l 619 649 l 619 671 l 382 540 l 382 849 b 482 960 382 950 421 960 l 482 978 l 53 978 l 53 960 b 142 858 113 960 142 943 l 142 410 l -37 311 l -37 289 l 142 388 l 142 161 b 64 18 142 67 124 18 l 64 0 l 828 0 l 828 301 z "},"ł":{"ha":488,"x_min":0,"x_max":0,"o":"m 10 379 l 140 456 l 140 163 b 86 17 140 90 139 32 l 86 0 l 401 0 l 401 17 b 346 163 353 31 346 86 l 346 575 l 467 647 l 467 669 l 346 597 l 346 1036 l 69 981 l 69 964 b 140 874 125 943 140 922 l 140 478 l 10 401 z "},"Ń":{"ha":1167,"x_min":0,"x_max":0,"o":""},"ń":{"ha":785,"x_min":0,"x_max":0,"o":"m 754 17 b 697 164 704 29 697 88 l 697 443 b 496 654 697 610 606 654 b 289 513 414 654 322 592 l 289 654 l 13 597 l 13 579 b 83 488 69 554 83 536 l 83 161 b 29 17 83 90 82 32 l 29 0 l 346 0 l 346 17 b 289 161 296 31 289 85 l 289 469 b 389 554 299 513 346 554 b 493 438 457 554 493 511 l 493 164 b 438 17 493 93 490 32 l 438 0 l 754 0 z m 239 751 l 321 751 l 701 918 l 511 978 z "},"Ň":{"ha":1167,"x_min":0,"x_max":0,"o":"m 933 0 l 933 646 b 1142 960 933 710 950 961 l 1142 978 l 721 978 l 721 960 b 915 646 893 961 915 710 l 915 292 l 399 978 l 7 978 l 7 960 b 176 856 43 957 90 965 l 236 775 l 236 333 b 22 18 236 278 224 18 l 22 0 l 454 0 l 454 18 b 254 333 257 18 254 278 l 254 754 l 819 0 z m 351 1281 l 574 1017 l 796 1281 l 742 1281 l 574 1171 l 406 1281 z "},"ň":{"ha":785,"x_min":0,"x_max":0,"o":"m 754 17 b 697 164 704 29 697 88 l 697 443 b 496 654 697 610 606 654 b 289 513 414 654 322 592 l 289 654 l 13 597 l 13 579 b 83 488 69 554 83 536 l 83 161 b 29 17 83 90 82 32 l 29 0 l 346 0 l 346 17 b 289 161 296 31 289 85 l 289 469 b 389 554 299 513 346 554 b 493 438 457 554 493 511 l 493 164 b 438 17 493 93 490 32 l 438 0 l 754 0 z m 217 978 l 439 714 l 661 978 l 607 978 l 439 868 l 271 978 z "},"Ő":{"ha":1096,"x_min":0,"x_max":0,"o":""},"ő":{"ha":790,"x_min":0,"x_max":0,"o":"m 503 321 b 401 6 503 69 489 6 b 300 321 314 6 300 69 b 401 636 300 572 314 636 b 503 321 489 636 503 572 z m 746 321 b 401 654 746 504 632 654 b 57 321 172 654 57 504 b 401 -12 57 139 172 -12 b 746 321 632 -12 746 139 z m 433 751 l 515 751 l 897 919 l 707 978 z m 107 751 l 190 751 l 571 919 l 381 978 z "},"Œ":{"ha":1443,"x_min":0,"x_max":0,"o":"m 681 768 b 679 201 681 733 679 239 b 525 6 679 29 617 6 b 346 482 383 6 346 100 b 525 972 346 863 382 972 b 681 768 619 972 681 940 z m 1342 288 b 972 18 1315 10 972 18 l 922 18 l 922 485 l 989 485 b 1156 331 990 485 1142 489 l 1174 331 l 1174 657 l 1156 657 b 989 503 1142 499 990 503 l 922 503 l 922 960 l 972 960 b 1324 703 972 960 1300 964 l 1342 703 l 1342 978 l 621 978 b 525 990 583 986 567 990 b 60 482 219 990 60 757 b 525 -12 60 206 219 -12 b 624 0 567 -12 586 -7 l 1360 0 l 1360 288 z "},"œ":{"ha":1110,"x_min":0,"x_max":0,"o":"m 697 350 b 790 636 697 483 715 636 b 875 350 857 636 875 525 z m 1018 188 b 836 76 986 104 908 60 b 697 332 743 97 700 157 l 1053 332 b 788 654 1053 571 956 654 b 599 579 717 654 657 625 b 388 654 549 622 478 654 b 57 319 158 654 57 503 b 388 -12 57 138 158 -12 b 597 58 479 -12 544 13 b 785 -12 650 15 713 -12 b 1038 181 960 -12 1017 93 z m 388 636 b 475 319 467 636 475 571 b 388 6 475 68 469 6 b 300 319 304 6 300 68 b 388 636 300 571 306 636 z "},"Ŕ":{"ha":1050,"x_min":0,"x_max":0,"o":""},"ŕ":{"ha":643,"x_min":0,"x_max":0,"o":"m 601 461 b 590 625 643 508 639 583 b 467 646 557 654 504 663 b 294 478 429 629 381 610 l 294 654 l 17 597 l 17 579 b 89 486 74 554 89 535 l 89 163 b 33 17 89 92 88 33 l 33 0 l 351 0 l 351 17 b 294 163 301 31 294 86 l 294 446 b 399 525 349 531 399 542 b 438 449 399 497 413 469 b 601 461 486 406 558 413 z m 151 751 l 233 751 l 614 918 l 424 978 z "},"Ř":{"ha":1050,"x_min":0,"x_max":0,"o":""},"ř":{"ha":643,"x_min":0,"x_max":0,"o":"m 601 461 b 590 625 643 508 639 583 b 467 646 557 654 504 663 b 294 478 429 629 381 610 l 294 654 l 17 597 l 17 579 b 89 486 74 554 89 535 l 89 163 b 33 17 89 92 88 33 l 33 0 l 351 0 l 351 17 b 294 163 301 31 294 86 l 294 446 b 399 525 349 531 399 542 b 438 449 399 497 413 469 b 601 461 486 406 558 413 z m 78 979 l 300 715 l 522 979 l 468 979 l 300 869 l 132 979 z "},"Ś":{"ha":861,"x_min":0,"x_max":0,"o":""},"ś":{"ha":622,"x_min":0,"x_max":0,"o":"m 519 63 b 431 374 592 158 556 297 l 290 461 b 300 636 169 538 210 636 b 510 465 413 636 489 551 l 528 465 l 528 614 b 300 654 528 614 460 654 b 100 586 151 654 100 586 b 188 279 19 489 54 364 l 328 194 b 315 6 433 125 414 6 b 83 221 188 6 108 129 l 65 221 l 65 43 b 315 -12 65 43 147 -12 b 519 63 467 -12 519 63 z m 126 751 l 208 751 l 589 918 l 399 978 z "},"Ş":{"ha":861,"x_min":0,"x_max":0,"o":"m 739 101 b 597 538 843 253 781 417 l 383 679 b 401 972 203 797 251 972 b 726 692 624 972 699 778 l 744 692 l 744 925 b 401 990 744 925 639 990 b 106 885 178 990 106 885 b 247 457 -11 735 50 581 l 461 322 b 436 6 629 199 585 6 b 78 332 204 6 104 243 l 60 332 l 60 65 b 390 -12 60 65 156 -4 l 342 -143 b 469 -232 446 -125 469 -208 b 407 -301 469 -268 449 -301 b 372 -287 372 -301 367 -290 b 390 -262 381 -283 388 -276 b 354 -208 396 -237 379 -214 b 297 -242 328 -201 301 -217 b 314 -289 293 -260 301 -279 b 411 -318 325 -299 356 -318 b 563 -207 465 -318 551 -300 b 382 -87 571 -132 510 -58 l 408 -12 l 436 -12 b 739 101 668 -12 739 101 z "},"ş":{"ha":622,"x_min":0,"x_max":0,"o":"m 519 63 b 431 374 592 158 556 297 l 290 461 b 300 636 169 538 210 636 b 510 465 413 636 489 551 l 528 465 l 528 614 b 300 654 528 614 460 654 b 100 586 151 654 100 586 b 188 279 19 489 54 364 l 328 194 b 315 6 433 125 414 6 b 83 221 188 6 108 129 l 65 221 l 65 43 b 267 -11 65 43 132 -1 l 218 -143 b 346 -232 322 -125 346 -208 b 283 -301 346 -268 325 -301 b 249 -287 249 -301 243 -290 b 267 -262 257 -283 264 -276 b 231 -208 272 -237 256 -214 b 174 -242 204 -201 178 -217 b 190 -289 169 -260 178 -279 b 288 -318 201 -299 232 -318 b 439 -207 342 -318 428 -300 b 258 -87 447 -132 386 -58 l 285 -12 b 315 -12 294 -12 304 -12 b 519 63 467 -12 519 63 z "},"Š":{"ha":861,"x_min":0,"x_max":0,"o":""},"š":{"ha":622,"x_min":0,"x_max":0,"o":"m 519 63 b 431 374 592 158 556 297 l 290 461 b 300 636 169 538 210 636 b 510 465 413 636 489 551 l 528 465 l 528 614 b 300 654 528 614 460 654 b 100 586 151 654 100 586 b 188 279 19 489 54 364 l 328 194 b 315 6 433 125 414 6 b 83 221 188 6 108 129 l 65 221 l 65 43 b 315 -12 65 43 147 -12 b 519 63 467 -12 519 63 z m 94 947 l 317 683 l 539 947 l 485 947 l 317 838 l 149 947 z "},"Ţ":{"ha":1010,"x_min":0,"x_max":0,"o":"m 26 978 l 26 682 l 44 682 b 361 960 53 886 303 960 l 382 960 l 382 163 b 292 18 382 68 349 18 l 292 0 l 481 0 l 431 -136 b 558 -225 535 -118 558 -201 b 496 -294 558 -261 538 -294 b 461 -281 461 -294 456 -283 b 479 -256 469 -276 476 -269 b 443 -201 485 -231 468 -207 b 386 -235 417 -194 390 -210 b 403 -282 382 -253 390 -272 b 500 -311 414 -292 444 -311 b 651 -200 554 -311 640 -293 b 471 -81 660 -125 599 -51 l 499 0 l 715 0 l 715 18 b 625 163 658 18 625 68 l 625 960 l 646 960 b 963 682 703 960 954 886 l 981 682 l 981 978 z "},"ţ":{"ha":521,"x_min":0,"x_max":0,"o":"m 413 89 b 301 204 332 89 301 126 l 301 618 l 471 618 l 474 642 l 301 642 l 301 857 l 97 828 l 97 642 l 17 642 l 19 618 l 97 618 l 97 200 b 229 -4 97 71 153 14 l 179 -139 b 306 -229 283 -121 306 -206 b 240 -306 307 -265 289 -306 b 204 -287 204 -307 197 -290 b 226 -260 215 -283 222 -275 b 190 -204 232 -235 217 -210 b 133 -239 165 -199 140 -214 b 150 -285 131 -257 139 -275 b 247 -310 163 -294 188 -310 b 399 -203 301 -310 388 -296 b 217 -83 408 -128 347 -54 l 244 -8 b 303 -12 264 -11 283 -12 b 510 125 397 -12 488 56 l 501 131 b 413 89 485 111 453 89 z "},"Ť":{"ha":1010,"x_min":0,"x_max":0,"o":""},"ť":{"ha":586,"x_min":0,"x_max":0,"o":"m 401 978 b 336 700 401 756 336 700 l 350 681 b 553 978 350 681 553 782 z m 490 132 b 407 88 476 113 447 88 b 301 204 332 88 301 126 l 301 624 l 471 624 l 474 642 l 301 642 l 301 857 l 97 828 l 97 642 l 17 642 l 19 624 l 97 624 l 97 200 b 303 -12 97 32 193 -12 b 506 124 400 -12 483 54 z "},"Ů":{"ha":1243,"x_min":0,"x_max":0,"o":""},"ů":{"ha":815,"x_min":0,"x_max":0,"o":"m 792 42 b 721 125 733 49 721 58 l 721 654 l 451 626 l 451 610 b 517 499 522 601 517 583 l 517 172 b 411 89 494 115 450 89 b 307 204 335 89 307 126 l 307 654 l 24 626 l 24 610 b 101 503 104 599 101 586 l 101 200 b 301 -12 101 33 192 -12 b 517 133 403 -12 494 57 l 517 15 b 556 -11 517 15 518 -17 l 792 25 z m 364 854 b 428 919 364 892 392 919 b 493 854 465 919 493 892 b 428 789 493 818 465 789 b 364 854 392 789 364 818 z m 567 854 b 428 990 567 931 504 990 b 290 854 353 990 290 931 b 428 718 290 779 353 718 b 567 854 504 718 567 779 z "},"Ű":{"ha":1054,"x_min":0,"x_max":0,"o":""},"ű":{"ha":815,"x_min":0,"x_max":0,"o":"m 792 42 b 721 125 733 49 721 58 l 721 654 l 451 626 l 451 610 b 517 499 522 601 517 583 l 517 172 b 411 89 494 115 450 89 b 307 204 335 89 307 126 l 307 654 l 24 626 l 24 610 b 101 503 104 599 101 586 l 101 200 b 301 -12 101 33 192 -12 b 517 133 403 -12 494 57 l 517 15 b 556 -11 517 15 518 -17 l 792 25 z m 436 751 l 518 751 l 900 919 l 710 978 z m 110 751 l 193 751 l 574 919 l 383 978 z "},"Ÿ":{"ha":1094,"x_min":0,"x_max":0,"o":"m 590 1157 b 681 1067 590 1107 631 1067 b 769 1157 729 1067 769 1107 b 681 1246 769 1206 729 1246 b 590 1157 631 1246 590 1206 z m 664 978 l 664 960 b 754 679 849 960 771 713 b 654 471 735 636 654 471 l 454 803 b 458 961 360 963 417 961 l 458 978 l 28 978 l 28 961 b 156 851 64 960 94 957 b 426 383 156 851 222 744 l 426 163 b 342 18 426 68 400 18 l 342 0 l 747 0 l 747 18 b 664 163 689 18 664 68 l 664 454 l 767 664 b 1074 960 893 915 1013 960 l 1074 978 z m 329 1157 b 419 1067 329 1107 369 1067 b 508 1157 468 1067 508 1107 b 419 1246 508 1206 468 1246 b 329 1157 369 1246 329 1206 z "},"Ź":{"ha":882,"x_min":0,"x_max":0,"o":""},"ź":{"ha":683,"x_min":0,"x_max":0,"o":"m 642 642 l 89 642 l 82 458 l 100 458 b 400 624 132 550 214 624 l 40 0 l 600 0 l 613 211 l 594 211 b 304 18 575 156 513 18 z m 163 751 l 244 751 l 625 918 l 435 978 z "},"Ż":{"ha":882,"x_min":0,"x_max":0,"o":""},"ż":{"ha":683,"x_min":0,"x_max":0,"o":"m 642 642 l 89 642 l 82 458 l 100 458 b 400 624 132 550 214 624 l 40 0 l 600 0 l 613 211 l 594 211 b 304 18 575 156 513 18 z m 383 758 b 479 857 436 758 479 803 b 383 951 479 910 436 951 b 285 857 329 951 285 910 b 383 758 285 803 329 758 z "},"Ž":{"ha":882,"x_min":0,"x_max":0,"o":""},"ž":{"ha":683,"x_min":0,"x_max":0,"o":"m 121 947 l 343 683 l 565 947 l 511 947 l 343 838 l 175 947 z m 642 642 l 89 642 l 82 458 l 100 458 b 400 624 132 550 214 624 l 40 0 l 600 0 l 613 211 l 594 211 b 304 18 575 156 513 18 z "},"ƒ":{"ha":1004,"x_min":0,"x_max":0,"o":"m 944 849 b 938 950 960 879 954 924 b 788 1021 921 976 858 1021 b 413 528 596 1021 464 857 l 282 528 l 279 510 l 411 510 l 346 -4 b 204 -315 346 -4 297 -315 b 153 -282 138 -315 140 -285 b 203 -239 174 -276 192 -260 b 163 -117 225 -193 207 -139 b 42 -160 118 -94 64 -114 b 47 -261 26 -190 31 -233 b 204 -332 64 -287 119 -332 b 568 136 404 -333 524 -200 l 619 510 l 789 510 l 794 528 l 621 528 l 643 692 b 788 1004 643 692 690 1004 b 833 972 847 1004 844 975 b 783 928 811 967 794 950 b 825 807 761 883 779 829 b 944 849 868 786 922 804 z "},"ˆ":{"ha":444,"x_min":0,"x_max":0,"o":"m 444 738 l 222 1003 l 0 738 l 54 738 l 222 849 l 392 738 z "},"ˇ":{"ha":447,"x_min":0,"x_max":0,"o":"m 0 1000 l 222 736 l 444 1000 l 390 1000 l 222 890 l 54 1000 z "},"ˉ":{"ha":424,"x_min":0,"x_max":0,"o":"m -35 924 l -35 801 l 458 801 l 458 924 z "},"˘":{"ha":371,"x_min":0,"x_max":0,"o":"m 360 978 b 188 888 360 926 322 888 b 13 978 50 888 13 926 l -1 978 b 188 769 -1 864 53 769 b 372 978 319 769 372 864 l 360 978 z "},"˙":{"ha":403,"x_min":0,"x_max":0,"o":"m 210 785 b 306 883 263 785 306 829 b 210 978 306 936 263 978 b 111 883 156 978 111 936 b 210 785 111 829 156 785 z "},"˚":{"ha":386,"x_min":0,"x_max":0,"o":"m 132 885 b 196 950 132 922 160 950 b 261 885 233 950 261 922 b 196 819 261 849 233 819 b 132 885 160 819 132 849 z m 335 885 b 196 1021 335 961 272 1021 b 58 885 121 1021 58 961 b 196 749 58 810 121 749 b 335 885 272 749 335 810 z "},"˛":{"ha":386,"x_min":0,"x_max":0,"o":"m 250 -165 b 343 -26 239 -119 267 -68 l 343 0 b 149 -218 215 -39 118 -101 b 301 -290 149 -218 171 -311 b 386 -175 382 -276 386 -218 l 368 -175 b 325 -214 368 -201 338 -211 b 250 -165 325 -214 265 -222 z "},"˜":{"ha":642,"x_min":0,"x_max":0,"o":"m 383 744 b 667 933 383 744 558 685 l 654 940 b 422 900 617 865 471 881 l 257 963 b -26 774 257 963 81 1029 l -12 769 b 217 807 24 844 171 825 z "},"˝":{"ha":915,"x_min":0,"x_max":0,"o":"m 447 774 l 529 774 l 911 942 l 721 1000 z m 121 774 l 204 774 l 585 942 l 394 1000 z "},"Ω":{"ha":1046,"x_min":0,"x_max":0,"o":"m 988 257 b 849 179 960 196 893 179 l 661 179 b 743 253 667 193 694 217 b 949 625 857 336 949 460 b 522 1021 949 868 786 1021 b 97 625 258 1021 97 868 b 303 253 97 460 189 336 b 385 179 353 217 379 193 l 197 179 b 58 257 153 179 86 196 l 40 257 l 90 0 l 464 0 b 353 618 453 60 353 313 b 522 1003 353 957 419 1003 b 693 618 625 1003 693 957 b 582 0 693 313 593 60 l 956 0 l 1006 257 z "},"μ":{"ha":819,"x_min":0,"x_max":0,"o":"m 717 654 l 447 626 l 447 610 b 513 499 518 601 513 583 l 513 178 b 413 88 493 124 451 88 b 303 203 332 88 303 125 l 303 654 l 21 626 l 21 610 b 93 500 97 600 93 585 l 93 -342 b 133 -368 93 -342 93 -375 l 375 -332 l 375 -315 b 303 -226 317 -310 303 -294 l 303 -12 b 513 136 371 -12 485 38 l 513 14 b 551 -12 513 14 514 -19 l 789 22 l 789 40 b 717 124 731 47 717 57 z "},"π":{"ha":821,"x_min":0,"x_max":0,"o":"m 746 92 b 704 65 746 92 736 65 b 651 160 704 65 651 65 l 651 501 l 651 501 b 801 732 792 501 801 614 l 783 732 b 617 654 775 661 717 654 l 243 654 b 10 422 54 651 10 422 l 28 413 b 235 501 90 493 169 499 l 235 501 l 218 251 b 82 -44 213 156 169 24 l 92 -58 b 333 243 93 -58 325 49 l 350 501 l 490 501 l 490 125 b 625 -12 490 125 486 -12 b 761 82 707 -12 750 39 z "},"‐":{"ha":621,"x_min":0,"x_max":0,"o":"m 526 274 l 526 431 l 89 431 l 89 274 z "},"–":{"ha":779,"x_min":0,"x_max":0,"o":"m 0 411 l 0 289 l 779 289 l 779 411 z "},"—":{"ha":1465,"x_min":0,"x_max":0,"o":"m 0 411 l 0 289 l 1465 289 l 1465 411 z "},"‘":{"ha":396,"x_min":0,"x_max":0,"o":"m 276 1017 b 153 907 213 981 174 936 b 121 622 108 839 42 701 b 303 622 171 572 253 572 b 301 807 354 674 353 757 b 214 843 276 831 246 840 b 289 1000 190 846 213 940 l 276 1017 z "},"’":{"ha":401,"x_min":0,"x_max":0,"o":"m 140 586 b 264 696 204 622 243 667 b 296 981 308 764 375 901 b 114 981 246 1031 164 1031 b 115 796 63 929 64 846 b 203 760 140 772 171 763 b 128 603 226 757 204 663 l 140 586 z "},"‚":{"ha":399,"x_min":0,"x_max":0,"o":"m 144 -183 b 268 -74 208 -147 247 -103 b 300 211 313 -6 379 132 b 118 211 250 261 168 261 b 119 26 67 160 68 76 b 207 -10 144 3 175 -7 b 132 -167 231 -12 208 -107 l 144 -183 z "},"“":{"ha":765,"x_min":0,"x_max":0,"o":"m 628 1024 b 504 914 564 988 525 943 b 472 629 460 846 393 708 b 654 629 522 579 604 579 b 653 814 706 681 704 764 b 565 850 628 838 597 847 b 640 1007 542 853 564 947 z m 263 1024 b 139 914 197 988 158 943 b 106 629 93 846 28 708 b 289 629 156 579 239 579 b 288 814 339 681 339 764 b 200 850 263 838 231 847 b 275 1007 176 853 197 947 z "},"”":{"ha":769,"x_min":0,"x_max":0,"o":"m 140 586 b 264 696 204 622 243 667 b 296 981 308 764 375 901 b 114 981 246 1031 164 1031 b 115 796 63 929 64 846 b 203 760 140 772 171 763 b 128 603 226 757 204 663 z m 506 586 b 629 696 571 622 610 667 b 663 981 675 764 740 901 b 479 981 613 1031 529 1031 b 481 796 429 929 429 846 b 568 760 506 772 538 763 b 493 603 592 757 571 663 z "},"„":{"ha":772,"x_min":0,"x_max":0,"o":"m 144 -183 b 268 -74 208 -147 247 -103 b 300 211 313 -6 379 132 b 118 211 250 261 168 261 b 119 26 67 160 68 76 b 207 -10 144 3 175 -7 b 132 -167 231 -12 208 -107 z m 510 -183 b 633 -74 575 -147 614 -103 b 667 211 679 -6 744 132 b 483 211 617 261 533 261 b 485 26 433 160 433 76 b 572 -10 510 3 542 -7 b 497 -167 596 -12 575 -107 z "},"†":{"ha":624,"x_min":0,"x_max":0,"o":"m 576 561 b 576 649 601 586 600 625 b 438 635 538 686 475 660 b 376 569 421 625 397 604 l 385 564 b 469 604 417 604 468 615 b 488 563 472 589 476 575 b 576 561 513 538 551 536 z m 179 635 b 39 649 143 661 78 686 b 39 561 15 625 15 585 b 128 563 64 536 103 538 b 146 604 139 575 144 589 b 231 564 147 615 199 604 l 238 569 b 179 635 217 604 194 625 z m 392 401 b 318 560 321 486 318 531 b 360 753 318 638 360 679 b 308 842 360 753 363 842 b 257 753 254 842 257 753 b 297 560 257 679 297 633 b 224 401 297 531 296 489 b 301 -368 293 46 301 -368 l 314 -368 b 392 401 314 -368 322 46 z m 308 896 b 381 969 347 896 381 929 b 308 1040 381 1008 347 1040 b 235 969 268 1040 235 1008 b 308 896 235 929 268 896 z "},"‡":{"ha":790,"x_min":0,"x_max":0,"o":"m 483 542 b 589 589 524 589 589 603 b 610 538 590 572 596 551 b 719 538 640 507 689 507 b 719 644 750 567 749 615 b 547 628 672 692 592 660 b 476 547 528 615 500 589 z m 60 538 b 169 538 92 507 139 507 b 192 589 183 551 190 571 b 294 542 193 603 256 589 l 303 547 b 232 628 278 589 251 615 b 60 644 186 660 107 692 b 60 538 31 615 31 567 z m 294 150 b 192 100 256 100 192 89 b 169 153 190 119 183 138 b 60 153 139 185 90 185 b 60 46 31 124 31 76 b 232 61 106 0 188 31 b 303 144 251 76 278 100 z m 401 199 b 486 342 401 199 400 282 b 401 486 400 394 401 486 b 451 682 401 581 451 590 b 390 786 451 682 454 786 b 328 682 325 786 328 682 b 378 486 328 590 378 575 b 292 342 378 486 378 397 b 378 199 378 285 378 199 b 328 3 378 103 328 93 b 390 -101 328 3 325 -101 b 451 3 454 -101 451 3 b 401 199 451 93 401 108 z m 300 944 b 390 856 300 894 340 856 b 478 944 438 856 478 894 b 390 1033 478 993 438 1033 b 300 944 340 1033 300 993 z m 478 -257 b 390 -168 478 -208 438 -168 b 300 -257 340 -168 300 -208 b 390 -346 300 -307 340 -346 b 478 -257 438 -346 478 -307 z m 719 46 b 719 153 749 75 749 124 b 610 153 688 185 640 185 b 589 100 596 138 590 119 b 483 150 589 89 524 100 l 476 144 b 547 61 500 100 528 76 b 719 46 590 31 672 -1 z "},"•":{"ha":718,"x_min":0,"x_max":0,"o":"m 360 290 b 546 474 463 290 546 372 b 360 658 546 578 463 658 b 175 474 258 658 175 578 b 360 290 175 372 258 290 z "},"…":{"ha":1317,"x_min":0,"x_max":0,"o":"m 1061 -11 b 1190 119 1132 -11 1190 46 b 1061 250 1190 192 1132 250 b 929 119 988 250 929 192 b 1061 -11 929 46 988 -11 z m 649 -11 b 778 119 719 -11 778 46 b 649 250 778 192 719 250 b 517 119 575 250 517 192 b 649 -11 517 46 575 -11 z m 250 -11 b 379 119 321 -11 379 46 b 250 250 379 192 321 250 b 119 119 178 250 119 192 b 250 -11 119 46 178 -11 z "},"‰":{"ha":1672,"x_min":0,"x_max":0,"o":"m 168 683 b 239 918 168 872 175 918 b 308 683 300 918 308 872 b 239 457 308 494 303 457 b 168 683 176 457 168 494 z m 451 683 b 239 936 451 819 394 936 b 24 683 82 936 24 819 b 239 439 24 546 82 439 b 451 683 394 439 451 546 z m 1410 47 b 1339 274 1347 47 1339 85 b 1410 508 1339 463 1346 508 b 1479 274 1471 508 1479 463 b 1410 47 1479 85 1474 47 z m 1410 526 b 1194 274 1253 526 1194 410 b 1410 29 1194 136 1253 29 b 1622 274 1565 29 1622 136 b 1410 526 1622 410 1565 526 z m 906 47 b 835 274 843 47 835 85 b 906 508 835 463 842 508 b 975 274 967 508 975 463 b 906 47 975 85 969 47 z m 906 526 b 690 274 749 526 690 410 b 906 29 690 136 749 29 b 1118 274 1061 29 1118 136 b 906 526 1118 410 1061 526 z m 881 978 l 163 0 l 276 0 l 996 978 z "},"‹":{"ha":506,"x_min":0,"x_max":0,"o":"m 428 701 l 69 369 l 428 46 l 428 107 l 261 369 l 428 640 z "},"›":{"ha":501,"x_min":0,"x_max":0,"o":"m 67 640 l 233 369 l 67 107 l 67 46 l 426 369 l 67 701 z "},"⁄":{"ha":508,"x_min":0,"x_max":0,"o":"m 635 1019 l -204 0 l -94 0 l 746 1019 z "},"€":{"ha":901,"x_min":0,"x_max":0,"o":"m 803 246 b 597 6 782 67 703 6 b 421 403 454 6 426 99 l 672 403 l 685 421 l 419 421 b 419 489 419 432 419 478 b 419 557 419 500 419 547 l 694 557 l 707 575 l 421 575 b 597 972 426 879 453 972 b 803 732 710 972 785 917 l 821 732 l 828 931 b 597 990 783 964 744 990 b 171 575 329 990 197 819 l 36 575 l 25 557 l 169 557 b 165 489 167 533 165 508 b 169 421 165 468 167 443 l 36 421 l 25 403 l 171 403 b 597 -12 196 158 328 -12 b 828 47 722 -12 781 14 l 821 246 z "},"ℓ":{"ha":518,"x_min":0,"x_max":0,"o":"m 311 515 l 347 550 b 407 967 517 713 439 918 b 311 699 401 974 311 1089 z m 493 128 b 336 -12 492 42 408 -12 b 118 263 219 -12 118 29 l 118 310 l 31 243 l 31 329 l 118 396 l 118 681 b 418 982 118 1024 325 1083 b 372 483 508 883 511 629 l 310 418 l 307 254 b 408 67 303 111 336 61 b 475 136 433 68 468 86 z "},"™":{"ha":1025,"x_min":0,"x_max":0,"o":"m 994 597 b 954 646 968 597 954 607 l 954 913 b 989 960 954 947 964 960 l 989 978 l 857 978 l 750 706 l 615 978 l 464 978 l 464 960 b 518 932 478 960 501 960 l 518 732 b 439 597 518 694 511 597 l 439 579 l 613 579 l 613 597 b 536 732 542 597 536 694 l 536 908 l 700 575 l 721 575 l 857 922 l 857 646 b 822 597 857 607 849 597 l 822 579 l 994 579 z m 18 978 l 18 861 l 36 861 b 150 960 38 949 136 960 l 163 960 l 163 656 b 126 597 163 617 150 597 l 126 579 l 299 579 l 299 597 b 263 656 275 597 263 617 l 263 960 l 274 960 b 389 861 288 960 388 949 l 407 861 l 407 978 z "},"Ω":{"ha":1046,"x_min":0,"x_max":0,"o":"m 988 257 b 849 179 960 196 893 179 l 661 179 b 743 253 667 193 694 217 b 949 625 857 336 949 460 b 522 1021 949 868 786 1021 b 97 625 258 1021 97 868 b 303 253 97 460 189 336 b 385 179 353 217 379 193 l 197 179 b 58 257 153 179 86 196 l 40 257 l 90 0 l 464 0 b 353 618 453 60 353 313 b 522 1003 353 957 419 1003 b 693 618 625 1003 693 957 b 582 0 693 313 593 60 l 956 0 l 1006 257 z "},"℮":{"ha":1239,"x_min":0,"x_max":0,"o":"m 956 872 l 956 544 l 282 544 l 282 878 b 615 983 372 943 489 983 b 956 872 746 983 864 942 z m 615 1021 b 42 510 299 1021 42 792 b 615 0 42 228 299 0 b 1065 194 799 0 960 76 l 1013 194 b 615 38 915 99 774 38 b 282 143 489 38 372 78 l 282 510 l 1189 510 b 615 1021 1189 792 932 1021 z "},"∂":{"ha":836,"x_min":0,"x_max":0,"o":"m 540 468 b 376 6 513 157 471 6 b 276 286 281 6 257 63 b 422 574 292 476 346 574 b 540 468 464 574 515 538 z m 769 457 b 379 1033 799 813 631 1033 b 90 926 244 1033 146 992 l 156 783 l 174 789 b 379 1015 172 889 278 1015 b 544 506 503 1015 576 904 b 346 638 518 604 410 638 b 57 318 142 638 71 478 b 376 -12 39 94 172 -12 b 769 457 621 -12 746 168 z "},"∆":{"ha":994,"x_min":0,"x_max":0,"o":"m 533 1025 l 438 1000 l 44 36 l 53 0 l 914 0 l 935 44 z m 119 61 l 407 732 l 696 61 z "},"∏":{"ha":1189,"x_min":0,"x_max":0,"o":"m 1028 822 b 1147 960 1028 918 1079 960 l 1147 978 l 46 978 l 46 960 b 164 822 115 960 164 918 l 164 63 b 46 -100 164 -44 113 -100 l 46 -118 l 538 -118 l 538 -100 b 419 63 472 -100 419 -44 l 419 797 b 538 960 419 922 471 960 l 654 960 b 774 797 722 960 774 922 l 774 63 b 654 -100 774 -44 721 -100 l 654 -118 l 1147 -118 l 1147 -100 b 1028 63 1081 -100 1028 -44 l 1028 822 z "},"∑":{"ha":976,"x_min":0,"x_max":0,"o":"m 333 960 l 368 960 b 888 657 590 960 832 817 l 908 657 l 878 978 l 26 978 l 375 333 l 107 -136 l 894 -136 l 932 233 l 913 233 b 314 -118 876 136 735 -118 l 267 -118 l 614 472 z "},"−":{"ha":869,"x_min":0,"x_max":0,"o":"m 807 275 l 807 432 l 67 432 l 67 275 z "},"∕":{"ha":510,"x_min":0,"x_max":0,"o":"m 636 1019 l -203 0 l -93 0 l 747 1019 z "},"∙":{"ha":401,"x_min":0,"x_max":0,"o":"m 201 321 b 296 414 254 321 296 363 b 201 508 296 467 254 508 b 108 414 149 508 108 467 b 201 321 108 363 149 321 z "},"√":{"ha":846,"x_min":0,"x_max":0,"o":"m 540 108 l 336 582 l 56 469 l 63 454 b 204 350 115 475 174 422 l 468 -258 l 558 -229 l 806 1183 l 731 1204 z "},"∞":{"ha":1072,"x_min":0,"x_max":0,"o":"m 943 578 b 772 649 897 624 836 649 b 601 578 707 649 647 624 l 539 515 l 476 578 b 306 649 431 624 369 649 b 135 578 240 649 179 624 l 133 578 b 135 236 40 483 40 331 b 306 165 179 190 240 165 b 476 236 369 165 431 190 l 539 299 l 601 236 b 772 165 647 190 707 165 b 943 236 836 165 897 190 b 943 578 1038 331 1038 483 z m 835 344 b 772 318 818 328 796 318 b 710 344 749 318 726 328 l 647 407 l 710 469 b 772 494 726 486 749 494 b 835 469 796 494 818 486 b 835 344 869 435 869 379 z m 368 344 b 306 318 351 328 329 318 b 243 344 282 318 260 328 b 243 469 208 379 208 435 b 306 494 260 486 282 494 b 367 469 329 494 351 486 l 431 407 z "},"∫":{"ha":578,"x_min":0,"x_max":0,"o":"m 544 1007 b 532 1097 554 1035 550 1075 b 399 1146 508 1125 461 1146 b 174 618 244 1146 131 996 l 240 7 b 176 -276 268 -278 181 -276 b 140 -253 138 -276 129 -256 b 182 -210 160 -246 174 -231 b 136 -107 197 -169 178 -124 b 33 -153 94 -90 49 -110 b 46 -242 22 -181 29 -218 b 175 -292 67 -269 113 -292 b 400 235 332 -292 439 -156 l 333 847 b 399 1129 308 1129 392 1129 b 438 1108 438 1129 446 1111 b 394 1065 418 1101 403 1088 b 440 963 378 1025 399 979 b 544 1007 482 946 528 967 z "},"≈":{"ha":771,"x_min":0,"x_max":0,"o":"m 447 410 b 731 599 447 410 622 350 l 718 606 b 486 565 681 531 535 546 l 321 628 b 38 439 321 628 144 694 l 51 435 b 281 472 88 510 235 490 z m 447 153 b 731 342 447 153 622 93 l 718 349 b 486 308 681 274 535 289 l 321 371 b 38 182 321 371 144 438 l 51 178 b 281 215 88 253 235 233 z "},"≠":{"ha":742,"x_min":0,"x_max":0,"o":"m 681 468 l 681 576 l 524 576 l 586 713 l 488 760 l 403 576 l 64 576 l 64 468 l 351 468 l 281 311 l 64 311 l 64 203 l 231 203 l 174 78 l 274 32 l 351 203 l 681 203 l 681 311 l 403 311 l 474 468 z "},"≤":{"ha":792,"x_min":0,"x_max":0,"o":"m 333 508 l 724 706 l 724 871 l 78 540 l 78 478 l 724 147 l 724 311 z m 65 110 l 65 -25 l 724 -25 l 724 110 z "},"≥":{"ha":793,"x_min":0,"x_max":0,"o":"m 65 311 l 65 147 l 711 478 l 711 540 l 65 871 l 65 706 l 456 508 z m 65 110 l 65 -25 l 724 -25 l 724 110 z "},"◊":{"ha":776,"x_min":0,"x_max":0,"o":"m 564 454 l 386 106 l 210 454 l 386 804 z m 418 1018 l 356 1018 l 67 454 l 356 -110 l 418 -110 l 707 454 z "},"":{"ha":851,"x_min":0,"x_max":0,"o":"m 540 322 b 435 6 540 43 506 6 b 328 322 361 6 328 43 b 435 636 328 603 364 636 b 540 322 507 636 540 603 z m 792 322 b 435 654 792 518 694 654 b 78 322 175 654 78 514 b 435 -12 78 129 176 -12 b 792 322 696 -12 792 128 z "},"":{"ha":715,"x_min":0,"x_max":0,"o":"m 274 128 b 160 18 274 24 215 18 l 160 0 l 581 0 l 581 18 b 485 128 532 18 485 21 l 485 654 l 169 583 l 169 565 b 274 492 240 565 274 561 z "},"":{"ha":750,"x_min":0,"x_max":0,"o":"m 628 251 b 496 172 599 196 543 172 l 290 168 b 625 499 361 238 651 265 b 218 618 601 693 297 669 b 117 504 142 568 124 528 b 136 418 106 476 113 442 b 253 417 167 385 219 385 b 256 535 286 449 288 501 b 197 557 240 550 217 558 b 226 603 188 556 179 581 b 417 489 307 640 396 583 b 250 154 436 400 414 304 l 100 0 l 579 0 l 646 251 z "},"":{"ha":783,"x_min":0,"x_max":0,"o":"m 365 -368 b 732 -36 515 -368 740 -297 b 508 194 729 61 647 167 b 385 654 757 371 617 654 b 133 407 283 654 131 582 l 153 406 b 378 465 183 496 317 513 b 267 153 463 401 474 204 l 267 135 b 507 -86 458 119 497 -18 b 364 -350 526 -222 486 -350 b 243 -306 253 -350 228 -310 b 307 -253 272 -299 293 -281 b 253 -104 333 -196 310 -131 b 106 -158 199 -78 132 -101 b 118 -275 88 -197 94 -246 b 365 -368 172 -339 243 -368 z "},"":{"ha":831,"x_min":0,"x_max":0,"o":"m 407 31 l 200 29 b 197 106 172 29 143 31 l 407 396 z m 763 -67 l 763 31 l 632 31 l 632 642 l 572 654 l 68 -44 l 68 -68 l 407 -67 l 407 -179 b 317 -350 407 -344 375 -350 l 317 -368 l 722 -368 l 722 -350 b 632 -172 664 -350 632 -347 l 632 -67 z "},"":{"ha":794,"x_min":0,"x_max":0,"o":"m 729 -60 b 161 263 735 125 579 331 l 193 435 l 646 435 l 710 642 l 211 642 l 106 72 b 550 -108 442 117 531 -43 b 365 -350 582 -222 521 -350 b 275 -307 267 -350 258 -317 b 325 -237 300 -293 317 -269 b 239 -97 340 -174 300 -111 b 97 -183 176 -83 111 -121 b 135 -300 88 -226 104 -275 b 365 -368 167 -326 232 -368 b 729 -60 556 -368 721 -274 z "},"":{"ha":839,"x_min":0,"x_max":0,"o":"m 550 293 b 431 6 550 78 535 6 b 314 472 326 6 314 165 b 440 596 314 558 392 596 b 550 293 514 596 550 475 z m 782 321 b 504 654 782 474 729 654 b 314 524 440 654 342 622 b 492 972 315 892 392 972 b 583 939 567 972 593 942 b 521 899 556 935 536 922 b 553 758 492 851 504 788 b 693 792 601 729 663 743 b 694 896 713 824 713 868 b 492 990 682 915 626 990 b 63 438 244 990 63 779 b 431 -12 63 161 186 -12 b 782 321 633 -12 782 106 z "},"":{"ha":772,"x_min":0,"x_max":0,"o":"m 115 642 l 71 357 l 89 357 b 224 438 118 413 176 438 l 604 438 b 247 -356 318 103 256 -96 l 481 -356 b 624 438 481 -135 478 163 l 742 642 z "},"":{"ha":806,"x_min":0,"x_max":0,"o":"m 401 972 b 510 931 439 972 479 961 b 561 776 540 900 561 851 b 501 608 561 693 546 633 b 386 665 482 617 400 657 b 317 718 357 682 335 699 b 274 839 283 756 271 797 b 401 972 278 921 331 972 z m 60 224 b 413 -12 60 57 188 -12 b 757 283 633 -12 757 86 b 521 599 757 404 671 529 b 692 786 596 617 692 683 b 401 990 692 911 589 990 b 85 726 211 990 85 886 b 261 454 85 619 147 528 b 60 224 178 431 60 353 z m 290 438 b 407 374 301 431 394 381 b 567 154 494 325 572 247 b 413 6 561 61 500 6 b 226 233 290 6 226 88 b 290 438 226 349 256 411 z "},"":{"ha":813,"x_min":0,"x_max":0,"o":"m 285 347 b 404 636 285 563 300 636 b 522 161 508 636 522 442 b 390 46 522 85 447 46 b 285 347 321 46 285 165 z m 53 319 b 331 -12 53 167 106 -12 b 522 111 394 -12 494 14 b 343 -350 519 -256 517 -350 b 246 -317 268 -350 235 -318 b 317 -274 272 -312 301 -299 b 285 -125 349 -224 335 -156 b 135 -160 232 -93 167 -108 b 132 -271 113 -194 114 -240 b 343 -368 144 -292 196 -368 b 772 197 667 -368 772 -144 b 404 654 772 474 658 654 b 53 319 203 654 53 549 z "},"":{"ha":849,"x_min":0,"x_max":0,"o":"m 418 6 l 418 347 l 460 322 b 418 6 614 208 603 6 z m 400 665 l 382 679 b 400 972 201 797 250 972 z m 596 538 l 418 654 l 418 972 b 731 692 628 963 704 776 l 743 692 l 743 925 b 418 990 743 925 643 988 l 418 1160 l 400 1160 l 400 990 b 104 885 176 990 104 885 b 246 457 -12 735 49 581 l 400 358 l 400 6 b 69 332 193 29 94 246 l 58 332 l 58 65 b 400 -12 58 65 156 -6 l 400 -182 l 418 -182 l 418 -12 b 738 101 636 -12 708 67 b 596 538 842 253 779 417 z "},"":{"ha":757,"x_min":0,"x_max":0,"o":"m 326 346 b 454 635 326 533 392 619 l 454 122 b 326 346 379 151 326 219 z m 508 540 b 571 418 490 489 519 433 b 694 482 622 401 678 431 b 669 582 704 518 693 558 b 472 654 642 611 576 654 l 472 824 l 454 824 l 454 654 b 103 324 217 646 103 494 b 454 -12 103 132 235 -12 l 454 -164 l 472 -164 l 472 -12 b 696 174 613 4 686 103 l 681 182 b 472 118 653 125 543 96 l 472 636 b 556 596 549 636 569 601 b 508 540 533 585 517 567 z "},"":{"ha":849,"x_min":0,"x_max":0,"o":"m 418 6 l 418 347 l 460 322 b 418 6 614 208 603 6 z m 400 665 l 382 679 b 400 972 201 797 250 972 z m 596 538 l 418 654 l 418 972 b 731 692 628 963 704 776 l 743 692 l 743 925 b 418 990 743 925 643 988 l 418 1160 l 400 1160 l 400 990 b 104 885 176 990 104 885 b 246 457 -12 735 49 581 l 400 358 l 400 6 b 69 332 193 29 94 246 l 58 332 l 58 65 b 400 -12 58 65 156 -6 l 400 -182 l 418 -182 l 418 -12 b 738 101 636 -12 708 67 b 596 538 842 253 779 417 z "},"":{"ha":851,"x_min":0,"x_max":0,"o":"m 540 322 b 435 6 540 43 506 6 b 328 322 361 6 328 43 b 435 636 328 603 364 636 b 540 322 507 636 540 603 z m 792 322 b 435 654 792 518 694 654 b 78 322 175 654 78 514 b 435 -12 78 129 176 -12 b 792 322 696 -12 792 128 z "},"":{"ha":715,"x_min":0,"x_max":0,"o":"m 274 128 b 160 18 274 24 215 18 l 160 0 l 581 0 l 581 18 b 485 128 532 18 485 21 l 485 654 l 169 583 l 169 565 b 274 492 240 565 274 561 z "},"":{"ha":750,"x_min":0,"x_max":0,"o":"m 628 251 b 496 172 599 196 543 172 l 290 168 b 625 499 361 238 651 265 b 218 618 601 693 297 669 b 117 504 142 568 124 528 b 136 418 106 476 113 442 b 253 417 167 385 219 385 b 256 535 286 449 288 501 b 197 557 240 550 217 558 b 226 603 188 556 179 581 b 417 489 307 640 396 583 b 250 154 436 400 414 304 l 100 0 l 579 0 l 646 251 z "},"":{"ha":783,"x_min":0,"x_max":0,"o":"m 365 -368 b 732 -36 515 -368 740 -297 b 508 194 729 61 647 167 b 385 654 757 371 617 654 b 133 407 283 654 131 582 l 153 406 b 378 465 183 496 317 513 b 267 153 463 401 474 204 l 267 135 b 507 -86 458 119 497 -18 b 364 -350 526 -222 486 -350 b 243 -306 253 -350 228 -310 b 307 -253 272 -299 293 -281 b 253 -104 333 -196 310 -131 b 106 -158 199 -78 132 -101 b 118 -275 88 -197 94 -246 b 365 -368 172 -339 243 -368 z "},"":{"ha":831,"x_min":0,"x_max":0,"o":"m 407 31 l 200 29 b 197 106 172 29 143 31 l 407 396 z m 763 -67 l 763 31 l 632 31 l 632 642 l 572 654 l 68 -44 l 68 -68 l 407 -67 l 407 -179 b 317 -350 407 -344 375 -350 l 317 -368 l 722 -368 l 722 -350 b 632 -172 664 -350 632 -347 l 632 -67 z "},"":{"ha":794,"x_min":0,"x_max":0,"o":"m 729 -60 b 161 263 735 125 579 331 l 193 435 l 646 435 l 710 642 l 211 642 l 106 72 b 550 -108 442 117 531 -43 b 365 -350 582 -222 521 -350 b 275 -307 267 -350 258 -317 b 325 -237 300 -293 317 -269 b 239 -97 340 -174 300 -111 b 97 -183 176 -83 111 -121 b 135 -300 88 -226 104 -275 b 365 -368 167 -326 232 -368 b 729 -60 556 -368 721 -274 z "},"":{"ha":839,"x_min":0,"x_max":0,"o":"m 550 293 b 431 6 550 78 535 6 b 314 472 326 6 314 165 b 440 596 314 558 392 596 b 550 293 514 596 550 475 z m 782 321 b 504 654 782 474 729 654 b 314 524 440 654 342 622 b 492 972 315 892 392 972 b 583 939 567 972 593 942 b 521 899 556 935 536 922 b 553 758 492 851 504 788 b 693 792 601 729 663 743 b 694 896 713 824 713 868 b 492 990 682 915 626 990 b 63 438 244 990 63 779 b 431 -12 63 161 186 -12 b 782 321 633 -12 782 106 z "},"":{"ha":772,"x_min":0,"x_max":0,"o":"m 115 642 l 71 357 l 89 357 b 224 438 118 413 176 438 l 604 438 b 247 -356 318 103 256 -96 l 481 -356 b 624 438 481 -135 478 163 l 742 642 z "},"":{"ha":806,"x_min":0,"x_max":0,"o":"m 401 972 b 510 931 439 972 479 961 b 561 776 540 900 561 851 b 501 608 561 693 546 633 b 386 665 482 617 400 657 b 317 718 357 682 335 699 b 274 839 283 756 271 797 b 401 972 278 921 331 972 z m 60 224 b 413 -12 60 57 188 -12 b 757 283 633 -12 757 86 b 521 599 757 404 671 529 b 692 786 596 617 692 683 b 401 990 692 911 589 990 b 85 726 211 990 85 886 b 261 454 85 619 147 528 b 60 224 178 431 60 353 z m 290 438 b 407 374 301 431 394 381 b 567 154 494 325 572 247 b 413 6 561 61 500 6 b 226 233 290 6 226 88 b 290 438 226 349 256 411 z "},"":{"ha":813,"x_min":0,"x_max":0,"o":"m 285 347 b 404 636 285 563 300 636 b 522 161 508 636 522 442 b 390 46 522 85 447 46 b 285 347 321 46 285 165 z m 53 319 b 331 -12 53 167 106 -12 b 522 111 394 -12 494 14 b 343 -350 519 -256 517 -350 b 246 -317 268 -350 235 -318 b 317 -274 272 -312 301 -299 b 285 -125 349 -224 335 -156 b 135 -160 232 -93 167 -108 b 132 -271 113 -194 114 -240 b 343 -368 144 -292 196 -368 b 772 197 667 -368 772 -144 b 404 654 772 474 658 654 b 53 319 203 654 53 549 z "},"":{"ha":757,"x_min":0,"x_max":0,"o":"m 326 346 b 454 635 326 533 392 619 l 454 122 b 326 346 379 151 326 219 z m 508 540 b 571 418 490 489 519 433 b 694 482 622 401 678 431 b 669 582 704 518 693 558 b 472 654 642 611 576 654 l 472 824 l 454 824 l 454 654 b 103 324 217 646 103 494 b 454 -12 103 132 235 -12 l 454 -164 l 472 -164 l 472 -12 b 696 174 613 4 686 103 l 681 182 b 472 118 653 125 543 96 l 472 636 b 556 596 549 636 569 601 b 508 540 533 585 517 567 z "},"ﬁ":{"ha":860,"x_min":0,"x_max":0,"o":"m 808 11 b 751 157 758 24 751 81 l 751 663 b 488 642 751 663 586 642 l 322 642 l 322 675 b 485 1017 322 940 408 1017 b 601 969 575 1017 632 978 b 538 921 574 964 551 946 b 576 771 507 867 524 801 b 726 811 629 742 697 760 b 726 936 747 849 746 901 b 485 1035 694 994 583 1035 b 117 657 272 1035 117 944 l 117 642 l 26 642 l 28 624 l 117 624 l 117 157 b 63 11 117 86 115 26 l 63 0 l 379 0 l 379 11 b 322 157 329 25 322 81 l 322 624 l 486 624 b 546 511 539 624 546 560 l 546 157 b 492 11 546 86 544 26 l 492 0 l 808 0 l 808 11 z "},"ﬂ":{"ha":831,"x_min":0,"x_max":0,"o":"m 810 17 b 753 157 760 29 753 81 l 753 1036 l 499 990 b 342 1035 446 1031 367 1035 b 101 753 242 1035 101 969 l 101 642 l 10 642 l 11 624 l 101 624 l 101 157 b 46 17 101 86 99 33 l 46 0 l 363 0 l 363 17 b 306 157 313 31 306 81 l 306 624 l 453 624 l 454 642 l 306 642 l 306 669 b 499 972 306 968 406 1007 b 547 878 544 956 547 915 l 547 157 b 493 17 547 86 546 32 l 493 0 l 810 0 l 810 17 z "},"Ș":{"ha":861,"x_min":0,"x_max":0,"o":"m 361 -472 b 485 -362 426 -436 465 -392 b 518 -78 531 -293 596 -157 b 335 -78 468 -28 385 -28 b 336 -262 285 -129 285 -212 b 424 -299 361 -286 393 -294 b 349 -456 447 -301 426 -396 z m 739 101 b 597 538 843 253 781 417 l 383 679 b 401 972 203 797 251 972 b 726 692 624 972 699 778 l 744 692 l 744 925 b 401 990 744 925 639 990 b 106 885 178 990 106 885 b 247 457 -11 735 50 581 l 461 322 b 436 6 629 199 585 6 b 78 332 204 6 104 243 l 60 332 l 60 65 b 436 -12 60 65 167 -12 b 739 101 668 -12 739 101 z "},"ș":{"ha":622,"x_min":0,"x_max":0,"o":"m 242 -472 b 365 -362 307 -436 346 -392 b 399 -78 411 -293 476 -157 b 215 -78 349 -28 265 -28 b 217 -262 165 -129 165 -212 b 304 -299 242 -286 274 -294 b 229 -456 328 -301 307 -396 z m 519 63 b 431 374 592 158 556 297 l 290 461 b 300 636 169 538 210 636 b 510 465 413 636 489 551 l 528 465 l 528 614 b 300 654 528 614 460 654 b 100 586 151 654 100 586 b 188 279 19 489 54 364 l 328 194 b 315 6 433 125 414 6 b 83 221 188 6 108 129 l 65 221 l 65 43 b 315 -12 65 43 147 -12 b 519 63 467 -12 519 63 z "},"Ț":{"ha":1010,"x_min":0,"x_max":0,"o":"m 439 -472 b 563 -362 504 -436 543 -392 b 596 -78 608 -293 674 -157 b 413 -78 546 -28 463 -28 b 414 -262 363 -129 363 -212 b 501 -299 439 -286 471 -294 b 426 -456 525 -301 504 -396 z m 26 978 l 26 682 l 44 682 b 361 960 53 886 303 960 l 382 960 l 382 163 b 292 18 382 68 349 18 l 292 0 l 715 0 l 715 18 b 625 163 658 18 625 68 l 625 960 l 646 960 b 963 682 703 960 954 886 l 981 682 l 981 978 z "},"ț":{"ha":521,"x_min":0,"x_max":0,"o":"m 222 -472 b 346 -362 288 -436 326 -392 b 379 -78 392 -293 457 -157 b 196 -78 329 -28 246 -28 b 197 -262 146 -129 146 -212 b 285 -299 222 -286 254 -294 b 210 -456 308 -301 288 -396 z m 490 132 b 407 88 476 113 447 88 b 301 204 332 88 301 126 l 301 624 l 471 624 l 474 642 l 301 642 l 301 857 l 97 828 l 97 642 l 17 642 l 19 624 l 97 624 l 97 200 b 303 -12 97 32 193 -12 b 506 124 400 -12 483 54 z "}}}
